<?xml version="1.0" encoding="utf-8"?>
<!-- Generator: Adobe Illustrator 24.1.0, SVG Export Plug-In . SVG Version: 6.00 Build 0)  -->
<svg version="1.1" id="Layer_1" xmlns="http://www.w3.org/2000/svg" xmlns:xlink="http://www.w3.org/1999/xlink" x="0px" y="0px"
	 viewBox="0 0 495.9 740.8" style="enable-background:new 0 0 495.9 740.8;" xml:space="preserve">
<style type="text/css">
	.st0{fill:#231F20;}
	.st1{enable-background:new    ;}
	.st2{fill:#039DA6;}
	.st3{fill:#595A5C;}
	.st4{fill:#089DA6;}
	.st5{fill:none;stroke:#089DA6;stroke-width:9;stroke-miterlimit:10;}
	.st6{fill:none;stroke:#000000;stroke-width:9;stroke-linecap:round;stroke-linejoin:round;}
</style>
<path class="st0" d="M253.1,237c-2-1-3.5-2.5-4.6-4.3c-1.1-1.9-1.6-4-1.6-6.5v-15.3c0-2.4,0.5-4.5,1.6-6.4c1.1-1.9,2.6-3.3,4.6-4.3
	c2-1,4.2-1.5,6.8-1.5s4.9,0.5,6.8,1.5c2,1,3.5,2.4,4.6,4.2c1.1,1.8,1.6,3.9,1.6,6.3c0,0.2-0.1,0.3-0.2,0.4s-0.2,0.2-0.4,0.2
	l-2.8,0.2c-0.4,0-0.6-0.2-0.6-0.5v-0.2c0-2.6-0.8-4.7-2.5-6.3c-1.7-1.6-3.9-2.4-6.6-2.4s-5,0.8-6.6,2.4c-1.7,1.6-2.5,3.7-2.5,6.3
	v15.6c0,2.6,0.8,4.7,2.5,6.3c1.7,1.6,3.9,2.4,6.6,2.4s5-0.8,6.6-2.4c1.7-1.6,2.5-3.7,2.5-6.3v-0.1c0-0.3,0.2-0.5,0.6-0.5l2.8,0.2
	c0.4,0,0.6,0.2,0.6,0.5c0,2.4-0.5,4.5-1.6,6.4c-1.1,1.8-2.6,3.3-4.6,4.3c-2,1-4.2,1.5-6.8,1.5S255,238,253.1,237z"/>
<path class="st0" d="M277.2,237.5v-37.9c0-0.4,0.2-0.6,0.6-0.6h2.8c0.4,0,0.6,0.2,0.6,0.6v34.7c0,0.1,0.1,0.2,0.2,0.2H301
	c0.4,0,0.6,0.2,0.6,0.6v2.3c0,0.4-0.2,0.6-0.6,0.6h-23.3C277.3,238,277.2,237.9,277.2,237.5z"/>
<path class="st0" d="M308,236.9c-2-1.1-3.6-2.6-4.6-4.5c-1.1-1.9-1.6-4.2-1.6-6.8v-14c0-2.6,0.5-4.8,1.6-6.8
	c1.1-1.9,2.6-3.5,4.6-4.5c2-1.1,4.3-1.6,7-1.6c2.6,0,5,0.5,7,1.6c2,1.1,3.6,2.6,4.7,4.5c1.1,1.9,1.6,4.2,1.6,6.8v14
	c0,2.6-0.5,4.8-1.6,6.8c-1.1,1.9-2.7,3.5-4.7,4.5c-2,1.1-4.4,1.6-7,1.6C312.3,238.5,310,238,308,236.9z M321.8,232.5
	c1.7-1.7,2.6-4,2.6-6.8v-14.3c0-2.8-0.9-5.1-2.6-6.8c-1.7-1.7-4-2.6-6.8-2.6c-2.8,0-5,0.9-6.7,2.6c-1.7,1.7-2.6,4-2.6,6.8v14.3
	c0,2.8,0.9,5.1,2.6,6.8c1.7,1.7,4,2.6,6.7,2.6C317.8,235.1,320,234.2,321.8,232.5z"/>
<path class="st0" d="M333.2,235.6c-2.4-1.9-3.6-4.4-3.6-7.6v-1.7c0-0.4,0.2-0.6,0.6-0.6h2.7c0.4,0,0.6,0.2,0.6,0.6v1.5
	c0,2.2,0.9,3.9,2.7,5.2c1.8,1.3,4.2,2,7.4,2c2.9,0,5-0.6,6.5-1.8c1.5-1.2,2.2-2.8,2.2-4.8c0-1.3-0.3-2.4-1-3.3
	c-0.7-0.9-1.7-1.8-3.2-2.6c-1.4-0.8-3.4-1.8-6-2.8c-2.8-1.1-4.9-2.1-6.5-2.9c-1.5-0.8-2.8-1.9-3.7-3.2c-0.9-1.3-1.4-3-1.4-5
	c0-3.1,1.1-5.5,3.3-7.3c2.2-1.7,5.2-2.6,8.9-2.6c4.1,0,7.4,1,9.7,2.9c2.4,1.9,3.6,4.5,3.6,7.7v1.2c0,0.4-0.2,0.6-0.6,0.6h-2.8
	c-0.4,0-0.6-0.2-0.6-0.6v-1c0-2.2-0.8-3.9-2.5-5.3c-1.7-1.4-4-2.1-7-2.1c-2.6,0-4.7,0.5-6.1,1.6c-1.4,1.1-2.1,2.6-2.1,4.7
	c0,1.3,0.3,2.4,1,3.3c0.7,0.9,1.7,1.6,3,2.3c1.3,0.6,3.3,1.5,5.9,2.5c2.7,1.1,4.9,2.2,6.5,3.1c1.7,1,3,2.1,4,3.5
	c1,1.4,1.5,3.1,1.5,5.1c0,3.1-1.2,5.6-3.5,7.5c-2.3,1.9-5.5,2.8-9.6,2.8C338.9,238.5,335.6,237.5,333.2,235.6z"/>
<path class="st0" d="M383.4,202.5h-20.5c-0.1,0-0.2,0.1-0.2,0.2v13.8c0,0.1,0.1,0.2,0.2,0.2h14.4c0.4,0,0.6,0.2,0.6,0.6v2.3
	c0,0.4-0.2,0.6-0.6,0.6h-14.4c-0.1,0-0.2,0.1-0.2,0.2v14c0,0.1,0.1,0.2,0.2,0.2h20.5c0.4,0,0.6,0.2,0.6,0.6v2.3
	c0,0.4-0.2,0.6-0.6,0.6h-24.1c-0.4,0-0.6-0.2-0.6-0.6v-37.9c0-0.4,0.2-0.6,0.6-0.6h24.1c0.4,0,0.6,0.2,0.6,0.6v2.3
	C383.9,202.3,383.7,202.5,383.4,202.5z"/>
<path class="st0" d="M386.7,237.5v-37.9c0-0.4,0.2-0.6,0.6-0.6h13.1c3.7,0,6.6,1,8.8,2.9c2.2,1.9,3.3,4.5,3.3,7.8v17.5
	c0,3.3-1.1,5.9-3.3,7.8c-2.2,1.9-5.1,2.9-8.8,2.9h-13.1C386.9,238,386.7,237.9,386.7,237.5z M390.9,234.6h9.7c2.4,0,4.3-0.7,5.8-2.1
	c1.4-1.4,2.1-3.3,2.1-5.7v-16.4c0-2.4-0.7-4.3-2.1-5.7c-1.4-1.4-3.3-2.1-5.8-2.1h-9.7c-0.1,0-0.2,0.1-0.2,0.2v31.6
	C390.7,234.5,390.7,234.6,390.9,234.6z"/>
<path class="st0" d="M253.1,303.8c-2-1-3.5-2.5-4.6-4.3c-1.1-1.9-1.6-4-1.6-6.5v-15.3c0-2.4,0.5-4.5,1.6-6.4
	c1.1-1.9,2.6-3.3,4.6-4.3c2-1,4.2-1.5,6.8-1.5s4.9,0.5,6.8,1.5c2,1,3.5,2.4,4.6,4.2c1.1,1.8,1.6,3.9,1.6,6.3c0,0.2-0.1,0.3-0.2,0.4
	s-0.2,0.2-0.4,0.2l-2.8,0.2c-0.4,0-0.6-0.2-0.6-0.5v-0.2c0-2.6-0.8-4.7-2.5-6.3c-1.7-1.6-3.9-2.4-6.6-2.4s-5,0.8-6.6,2.4
	c-1.7,1.6-2.5,3.7-2.5,6.3v15.6c0,2.6,0.8,4.7,2.5,6.3c1.7,1.6,3.9,2.4,6.6,2.4s5-0.8,6.6-2.4c1.7-1.6,2.5-3.7,2.5-6.3V293
	c0-0.3,0.2-0.5,0.6-0.5l2.8,0.2c0.4,0,0.6,0.2,0.6,0.5c0,2.4-0.5,4.5-1.6,6.4c-1.1,1.8-2.6,3.3-4.6,4.3c-2,1-4.2,1.5-6.8,1.5
	S255,304.8,253.1,303.8z"/>
<path class="st0" d="M277.2,304.3v-37.9c0-0.4,0.2-0.6,0.6-0.6h2.8c0.4,0,0.6,0.2,0.6,0.6v34.7c0,0.1,0.1,0.2,0.2,0.2H301
	c0.4,0,0.6,0.2,0.6,0.6v2.3c0,0.4-0.2,0.6-0.6,0.6h-23.3C277.3,304.8,277.2,304.7,277.2,304.3z"/>
<path class="st0" d="M308,303.7c-2-1.1-3.6-2.6-4.6-4.5c-1.1-1.9-1.6-4.2-1.6-6.8v-14c0-2.6,0.5-4.8,1.6-6.8
	c1.1-1.9,2.6-3.5,4.6-4.5c2-1.1,4.3-1.6,7-1.6c2.6,0,5,0.5,7,1.6c2,1.1,3.6,2.6,4.7,4.5c1.1,1.9,1.6,4.2,1.6,6.8v14
	c0,2.6-0.5,4.8-1.6,6.8c-1.1,1.9-2.7,3.5-4.7,4.5c-2,1.1-4.4,1.6-7,1.6C312.3,305.3,310,304.8,308,303.7z M321.8,299.3
	c1.7-1.7,2.6-4,2.6-6.8v-14.3c0-2.8-0.9-5.1-2.6-6.8c-1.7-1.7-4-2.6-6.8-2.6c-2.8,0-5,0.9-6.7,2.6c-1.7,1.7-2.6,4-2.6,6.8v14.3
	c0,2.8,0.9,5.1,2.6,6.8c1.7,1.7,4,2.6,6.7,2.6C317.8,301.9,320,301,321.8,299.3z"/>
<path class="st0" d="M333.2,302.5c-2.4-1.9-3.6-4.4-3.6-7.6v-1.7c0-0.4,0.2-0.6,0.6-0.6h2.7c0.4,0,0.6,0.2,0.6,0.6v1.5
	c0,2.2,0.9,3.9,2.7,5.2c1.8,1.3,4.2,2,7.4,2c2.9,0,5-0.6,6.5-1.8c1.5-1.2,2.2-2.8,2.2-4.8c0-1.3-0.3-2.4-1-3.3
	c-0.7-0.9-1.7-1.8-3.2-2.6c-1.4-0.8-3.4-1.8-6-2.8c-2.8-1.1-4.9-2.1-6.5-2.9c-1.5-0.8-2.8-1.9-3.7-3.2c-0.9-1.3-1.4-3-1.4-5
	c0-3.1,1.1-5.5,3.3-7.3c2.2-1.7,5.2-2.6,8.9-2.6c4.1,0,7.4,1,9.7,2.9c2.4,1.9,3.6,4.5,3.6,7.7v1.2c0,0.4-0.2,0.6-0.6,0.6h-2.8
	c-0.4,0-0.6-0.2-0.6-0.6v-1c0-2.2-0.8-3.9-2.5-5.3c-1.7-1.4-4-2.1-7-2.1c-2.6,0-4.7,0.5-6.1,1.6c-1.4,1.1-2.1,2.6-2.1,4.7
	c0,1.3,0.3,2.4,1,3.3c0.7,0.9,1.7,1.6,3,2.3c1.3,0.6,3.3,1.5,5.9,2.5c2.7,1.1,4.9,2.2,6.5,3.1c1.7,1,3,2.1,4,3.5
	c1,1.4,1.5,3.1,1.5,5.1c0,3.1-1.2,5.6-3.5,7.5c-2.3,1.9-5.5,2.8-9.6,2.8C338.9,305.3,335.6,304.3,333.2,302.5z"/>
<path class="st0" d="M383.4,269.3h-20.5c-0.1,0-0.2,0.1-0.2,0.2v13.8c0,0.1,0.1,0.2,0.2,0.2h14.4c0.4,0,0.6,0.2,0.6,0.6v2.3
	c0,0.4-0.2,0.6-0.6,0.6h-14.4c-0.1,0-0.2,0.1-0.2,0.2v14c0,0.1,0.1,0.2,0.2,0.2h20.5c0.4,0,0.6,0.2,0.6,0.6v2.3
	c0,0.4-0.2,0.6-0.6,0.6h-24.1c-0.4,0-0.6-0.2-0.6-0.6v-37.9c0-0.4,0.2-0.6,0.6-0.6h24.1c0.4,0,0.6,0.2,0.6,0.6v2.3
	C383.9,269.1,383.7,269.3,383.4,269.3z"/>
<path class="st0" d="M386.7,304.3v-37.9c0-0.4,0.2-0.6,0.6-0.6h13.1c3.7,0,6.6,1,8.8,2.9c2.2,1.9,3.3,4.5,3.3,7.8v17.5
	c0,3.3-1.1,5.9-3.3,7.8c-2.2,1.9-5.1,2.9-8.8,2.9h-13.1C386.9,304.8,386.7,304.7,386.7,304.3z M390.9,301.4h9.7
	c2.4,0,4.3-0.7,5.8-2.1c1.4-1.4,2.1-3.3,2.1-5.7v-16.4c0-2.4-0.7-4.3-2.1-5.7c-1.4-1.4-3.3-2.1-5.8-2.1h-9.7c-0.1,0-0.2,0.1-0.2,0.2
	v31.6C390.7,301.3,390.7,301.4,390.9,301.4z"/>
<path class="st0" d="M270.1,357.9v2.4c0,0.4-0.2,0.6-0.6,0.6h-2.4c-0.1,0-0.2,0.1-0.2,0.2v10c0,0.4-0.2,0.6-0.6,0.6h-2.8
	c-0.4,0-0.6-0.2-0.6-0.6v-10c0-0.1-0.1-0.2-0.2-0.2h-16.6c-0.4,0-0.6-0.2-0.6-0.6v-2.1c0-0.2,0.1-0.4,0.2-0.7l11.4-24.6
	c0.1-0.3,0.3-0.4,0.6-0.4h3c0.2,0,0.3,0.1,0.4,0.2c0.1,0.1,0.1,0.3,0,0.5l-11.1,23.7c0,0.1,0,0.1,0,0.2s0.1,0.1,0.2,0.1h12.5
	c0.1,0,0.2-0.1,0.2-0.2v-9c0-0.4,0.2-0.6,0.6-0.6h2.8c0.4,0,0.6,0.2,0.6,0.6v9c0,0.1,0.1,0.2,0.2,0.2h2.4
	C269.9,357.3,270.1,357.5,270.1,357.9z"/>
<path class="st0" d="M277.2,355.5v-2.3c0-0.4,0.2-0.6,0.6-0.6h16.5c0.4,0,0.6,0.2,0.6,0.6v2.3c0,0.4-0.2,0.6-0.6,0.6h-16.5
	C277.3,356.1,277.2,355.9,277.2,355.5z"/>
<path class="st0" d="M322.8,344.8v17.4c0,3-1,5.5-3,7.3c-2,1.8-4.6,2.7-7.8,2.7c-3.1,0-5.7-0.9-7.6-2.6c-1.9-1.8-2.9-4.1-2.9-6.9
	v-0.8c0-0.4,0.2-0.6,0.6-0.6h2.8c0.4,0,0.6,0.2,0.6,0.6v0.4c0,1.9,0.6,3.4,1.8,4.6c1.2,1.2,2.8,1.8,4.7,1.8c2,0,3.7-0.6,5-1.9
	c1.3-1.2,1.9-2.9,1.9-4.9v-8.1c0-0.1,0-0.1-0.1-0.1c-0.1,0-0.1,0-0.2,0.1c-1.6,2.2-4.1,3.3-7.3,3.3c-2.3,0-4.3-0.5-5.9-1.6
	c-1.6-1-2.8-2.5-3.6-4.4c-0.8-1.6-1.2-3.7-1.2-6.3c0-2.3,0.3-4.1,0.8-5.6c0.8-2.2,2-3.8,3.8-5c1.7-1.2,3.8-1.8,6.4-1.8
	c2.7,0,4.9,0.6,6.8,1.9c1.8,1.3,3.1,3.1,3.8,5.3C322.6,341,322.8,342.8,322.8,344.8z M315.9,352.3c1.1-0.8,1.9-1.9,2.4-3.3
	c0.4-1.1,0.6-2.6,0.6-4.5c0-1.6-0.2-3-0.5-4.1c-0.4-1.4-1.2-2.5-2.4-3.4c-1.2-0.9-2.6-1.3-4.2-1.3c-1.6,0-3,0.4-4.1,1.2
	c-1.2,0.8-2,2-2.4,3.5c-0.4,1-0.6,2.4-0.6,4.2c0,1.9,0.2,3.4,0.7,4.5c0.4,1.3,1.2,2.4,2.3,3.2c1.1,0.8,2.5,1.2,4.1,1.2
	C313.4,353.5,314.7,353.1,315.9,352.3z"/>
<path class="st0" d="M376.8,335.6c2,2,3,4.6,3,7.9c0,3.2-1,5.8-3,7.8c-2,2-4.7,3-8,3h-10.9c-0.1,0-0.2,0.1-0.2,0.2v16.6
	c0,0.4-0.2,0.6-0.6,0.6h-2.8c-0.4,0-0.6-0.2-0.6-0.6v-37.9c0-0.4,0.2-0.6,0.6-0.6H369C372.2,332.6,374.8,333.6,376.8,335.6z
	 M373.9,349c1.4-1.4,2.1-3.1,2.1-5.4c0-2.3-0.7-4.1-2.1-5.5c-1.4-1.4-3.2-2.1-5.3-2.1h-10.6c-0.1,0-0.2,0.1-0.2,0.2v14.5
	c0,0.1,0.1,0.2,0.2,0.2h10.6C370.7,351,372.5,350.3,373.9,349z"/>
<path class="st0" d="M408.5,332.7h2.9c0.4,0,0.6,0.2,0.6,0.6v37.9c0,0.4-0.2,0.6-0.6,0.6h-2.8c-0.4,0-0.6-0.2-0.6-0.6v-31
	c0-0.1,0-0.2-0.1-0.2c-0.1,0-0.1,0-0.2,0.1l-9.1,13.9c-0.2,0.3-0.4,0.4-0.7,0.4h-1.4c-0.3,0-0.5-0.1-0.7-0.3l-9.1-13.8
	c0-0.1-0.1-0.1-0.2-0.1c-0.1,0-0.1,0.1-0.1,0.2v30.8c0,0.4-0.2,0.6-0.6,0.6h-2.8c-0.4,0-0.6-0.2-0.6-0.6v-37.9
	c0-0.4,0.2-0.6,0.6-0.6h2.9c0.3,0,0.5,0.1,0.7,0.3l10.5,15.9c0,0,0.1,0.1,0.2,0.1c0.1,0,0.1,0,0.2-0.1l10.4-15.8
	C408,332.8,408.2,332.7,408.5,332.7z"/>
<path class="st0" d="M270.1,424.7v2.5c0,0.4-0.2,0.6-0.6,0.6h-2.4c-0.1,0-0.2,0.1-0.2,0.2v10c0,0.4-0.2,0.6-0.6,0.6h-2.8
	c-0.4,0-0.6-0.2-0.6-0.6v-10c0-0.1-0.1-0.2-0.2-0.2h-16.6c-0.4,0-0.6-0.2-0.6-0.6v-2.1c0-0.2,0.1-0.4,0.2-0.7l11.4-24.6
	c0.1-0.3,0.3-0.4,0.6-0.4h3c0.2,0,0.3,0.1,0.4,0.2c0.1,0.1,0.1,0.3,0,0.5l-11.1,23.7c0,0.1,0,0.1,0,0.2s0.1,0.1,0.2,0.1h12.5
	c0.1,0,0.2-0.1,0.2-0.2v-9c0-0.4,0.2-0.6,0.6-0.6h2.8c0.4,0,0.6,0.2,0.6,0.6v9c0,0.1,0.1,0.2,0.2,0.2h2.4
	C269.9,424.2,270.1,424.3,270.1,424.7z"/>
<path class="st0" d="M277.2,422.3V420c0-0.4,0.2-0.6,0.6-0.6h16.5c0.4,0,0.6,0.2,0.6,0.6v2.3c0,0.4-0.2,0.6-0.6,0.6h-16.5
	C277.3,422.9,277.2,422.7,277.2,422.3z"/>
<path class="st0" d="M322.8,411.6v17.4c0,3-1,5.5-3,7.3c-2,1.8-4.6,2.7-7.8,2.7c-3.1,0-5.7-0.9-7.6-2.6c-1.9-1.8-2.9-4.1-2.9-6.9
	v-0.8c0-0.4,0.2-0.6,0.6-0.6h2.8c0.4,0,0.6,0.2,0.6,0.6v0.4c0,1.9,0.6,3.4,1.8,4.6c1.2,1.2,2.8,1.8,4.7,1.8c2,0,3.7-0.6,5-1.9
	c1.3-1.2,1.9-2.9,1.9-4.9v-8.1c0-0.1,0-0.1-0.1-0.1c-0.1,0-0.1,0-0.2,0.1c-1.6,2.2-4.1,3.3-7.3,3.3c-2.3,0-4.3-0.5-5.9-1.6
	c-1.6-1-2.8-2.5-3.6-4.4c-0.8-1.6-1.2-3.7-1.2-6.3c0-2.3,0.3-4.1,0.8-5.6c0.8-2.2,2-3.8,3.8-5c1.7-1.2,3.8-1.8,6.4-1.8
	c2.7,0,4.9,0.6,6.8,1.9c1.8,1.3,3.1,3.1,3.8,5.3C322.6,407.8,322.8,409.6,322.8,411.6z M315.9,419.1c1.1-0.8,1.9-1.9,2.4-3.3
	c0.4-1.1,0.6-2.6,0.6-4.5c0-1.6-0.2-3-0.5-4.1c-0.4-1.4-1.2-2.5-2.4-3.4s-2.6-1.3-4.2-1.3c-1.6,0-3,0.4-4.1,1.2
	c-1.2,0.8-2,2-2.4,3.5c-0.4,1-0.6,2.4-0.6,4.2c0,1.9,0.2,3.4,0.7,4.5c0.4,1.3,1.2,2.4,2.3,3.2c1.1,0.8,2.5,1.2,4.1,1.2
	C313.4,420.3,314.7,419.9,315.9,419.1z"/>
<path class="st0" d="M376.8,402.4c2,2,3,4.6,3,7.9c0,3.2-1,5.8-3,7.8c-2,2-4.7,3-8,3h-10.9c-0.1,0-0.2,0.1-0.2,0.2v16.6
	c0,0.4-0.2,0.6-0.6,0.6h-2.8c-0.4,0-0.6-0.2-0.6-0.6V400c0-0.4,0.2-0.6,0.6-0.6H369C372.2,399.4,374.8,400.4,376.8,402.4z
	 M373.9,415.8c1.4-1.4,2.1-3.1,2.1-5.4c0-2.3-0.7-4.1-2.1-5.5s-3.2-2.1-5.3-2.1h-10.6c-0.1,0-0.2,0.1-0.2,0.2v14.5
	c0,0.1,0.1,0.2,0.2,0.2h10.6C370.7,417.8,372.5,417.1,373.9,415.8z"/>
<path class="st0" d="M408.5,399.5h2.9c0.4,0,0.6,0.2,0.6,0.6v37.9c0,0.4-0.2,0.6-0.6,0.6h-2.8c-0.4,0-0.6-0.2-0.6-0.6v-31
	c0-0.1,0-0.2-0.1-0.2c-0.1,0-0.1,0-0.2,0.1l-9.1,13.9c-0.2,0.3-0.4,0.4-0.7,0.4h-1.4c-0.3,0-0.5-0.1-0.7-0.3l-9.1-13.8
	c0-0.1-0.1-0.1-0.2-0.1c-0.1,0-0.1,0.1-0.1,0.2v30.8c0,0.4-0.2,0.6-0.6,0.6h-2.8c-0.4,0-0.6-0.2-0.6-0.6V400c0-0.4,0.2-0.6,0.6-0.6
	h2.9c0.3,0,0.5,0.1,0.7,0.3l10.5,15.9c0,0,0.1,0.1,0.2,0.1c0.1,0,0.1,0,0.2-0.1l10.4-15.8C408,399.6,408.2,399.5,408.5,399.5z"/>
<path class="st0" d="M270.1,491.5v2.5c0,0.4-0.2,0.6-0.6,0.6h-2.4c-0.1,0-0.2,0.1-0.2,0.2v10c0,0.4-0.2,0.6-0.6,0.6h-2.8
	c-0.4,0-0.6-0.2-0.6-0.6v-10c0-0.1-0.1-0.2-0.2-0.2h-16.6c-0.4,0-0.6-0.2-0.6-0.6v-2.1c0-0.2,0.1-0.4,0.2-0.7l11.4-24.6
	c0.1-0.3,0.3-0.4,0.6-0.4h3c0.2,0,0.3,0.1,0.4,0.2c0.1,0.1,0.1,0.3,0,0.5l-11.1,23.7c0,0.1,0,0.1,0,0.2s0.1,0.1,0.2,0.1h12.5
	c0.1,0,0.2-0.1,0.2-0.2v-9c0-0.4,0.2-0.6,0.6-0.6h2.8c0.4,0,0.6,0.2,0.6,0.6v9c0,0.1,0.1,0.2,0.2,0.2h2.4
	C269.9,491,270.1,491.1,270.1,491.5z"/>
<path class="st0" d="M277.2,489.1v-2.3c0-0.4,0.2-0.6,0.6-0.6h16.5c0.4,0,0.6,0.2,0.6,0.6v2.3c0,0.4-0.2,0.6-0.6,0.6h-16.5
	C277.3,489.7,277.2,489.5,277.2,489.1z"/>
<path class="st0" d="M322.8,478.4v17.4c0,3-1,5.5-3,7.3c-2,1.8-4.6,2.7-7.8,2.7c-3.1,0-5.7-0.9-7.6-2.6c-1.9-1.8-2.9-4.1-2.9-6.9
	v-0.8c0-0.4,0.2-0.6,0.6-0.6h2.8c0.4,0,0.6,0.2,0.6,0.6v0.4c0,1.9,0.6,3.4,1.8,4.6c1.2,1.2,2.8,1.8,4.7,1.8c2,0,3.7-0.6,5-1.9
	c1.3-1.2,1.9-2.9,1.9-4.9v-8.1c0-0.1,0-0.1-0.1-0.1c-0.1,0-0.1,0-0.2,0.1c-1.6,2.2-4.1,3.3-7.3,3.3c-2.3,0-4.3-0.5-5.9-1.6
	c-1.6-1-2.8-2.5-3.6-4.4c-0.8-1.6-1.2-3.7-1.2-6.3c0-2.3,0.3-4.1,0.8-5.6c0.8-2.2,2-3.8,3.8-5c1.7-1.2,3.8-1.8,6.4-1.8
	c2.7,0,4.9,0.6,6.8,1.9c1.8,1.3,3.1,3.1,3.8,5.3C322.6,474.6,322.8,476.4,322.8,478.4z M315.9,485.9c1.1-0.8,1.9-1.9,2.4-3.3
	c0.4-1.1,0.6-2.6,0.6-4.5c0-1.6-0.2-3-0.5-4.1c-0.4-1.4-1.2-2.5-2.4-3.4s-2.6-1.3-4.2-1.3c-1.6,0-3,0.4-4.1,1.2
	c-1.2,0.8-2,2-2.4,3.5c-0.4,1-0.6,2.4-0.6,4.2c0,1.9,0.2,3.4,0.7,4.5c0.4,1.3,1.2,2.4,2.3,3.2c1.1,0.8,2.5,1.2,4.1,1.2
	C313.4,487.1,314.7,486.7,315.9,485.9z"/>
<path class="st0" d="M376.8,469.2c2,2,3,4.6,3,7.9c0,3.2-1,5.8-3,7.8c-2,2-4.7,3-8,3h-10.9c-0.1,0-0.2,0.1-0.2,0.2v16.6
	c0,0.4-0.2,0.6-0.6,0.6h-2.8c-0.4,0-0.6-0.2-0.6-0.6v-37.9c0-0.4,0.2-0.6,0.6-0.6H369C372.2,466.2,374.8,467.2,376.8,469.2z
	 M373.9,482.6c1.4-1.4,2.1-3.1,2.1-5.4c0-2.3-0.7-4.1-2.1-5.5s-3.2-2.1-5.3-2.1h-10.6c-0.1,0-0.2,0.1-0.2,0.2v14.5
	c0,0.1,0.1,0.2,0.2,0.2h10.6C370.7,484.6,372.5,483.9,373.9,482.6z"/>
<path class="st0" d="M408.5,466.3h2.9c0.4,0,0.6,0.2,0.6,0.6v37.9c0,0.4-0.2,0.6-0.6,0.6h-2.8c-0.4,0-0.6-0.2-0.6-0.6v-31
	c0-0.1,0-0.2-0.1-0.2c-0.1,0-0.1,0-0.2,0.1l-9.1,13.9c-0.2,0.3-0.4,0.4-0.7,0.4h-1.4c-0.3,0-0.5-0.1-0.7-0.3l-9.1-13.8
	c0-0.1-0.1-0.1-0.2-0.1c-0.1,0-0.1,0.1-0.1,0.2v30.8c0,0.4-0.2,0.6-0.6,0.6h-2.8c-0.4,0-0.6-0.2-0.6-0.6v-37.9
	c0-0.4,0.2-0.6,0.6-0.6h2.9c0.3,0,0.5,0.1,0.7,0.3l10.5,15.9c0,0,0.1,0.1,0.2,0.1c0.1,0,0.1,0,0.2-0.1l10.4-15.8
	C408,466.4,408.2,466.3,408.5,466.3z"/>
<path class="st0" d="M251.6,533.1h3c0.4,0,0.6,0.2,0.6,0.6v37.9c0,0.4-0.2,0.6-0.6,0.6h-2.8c-0.4,0-0.6-0.2-0.6-0.6v-33.9
	c0-0.1,0-0.1-0.1-0.2s-0.1,0-0.2,0l-5.9,2.4l-0.2,0.1c-0.2,0-0.4-0.1-0.4-0.4l-0.3-2.1v-0.1c0-0.2,0.1-0.4,0.4-0.6l6.4-3.4
	C251.1,533.2,251.3,533.1,251.6,533.1z"/>
<path class="st0" d="M263.7,568.6h17.5c0.4,0,0.6,0.2,0.6,0.6v2.3c0,0.4-0.2,0.6-0.6,0.6H259c-0.4,0-0.6-0.2-0.6-0.6v-2.3
	c0-0.3,0.1-0.5,0.3-0.7c1.3-1.5,4.1-5,8.5-10.5l4.1-5.1c3.5-4.4,5.2-7.8,5.2-10.3c0-2-0.7-3.5-2-4.7c-1.3-1.2-3.1-1.8-5.2-1.8
	c-2.1,0-3.8,0.6-5.1,1.8c-1.3,1.2-1.9,2.8-1.9,4.8v1.7c0,0.4-0.2,0.6-0.6,0.6h-2.9c-0.4,0-0.6-0.2-0.6-0.6v-2.2
	c0.1-2.9,1.1-5.2,3.2-6.9c2.1-1.7,4.7-2.6,7.8-2.6c2.2,0,4.2,0.4,5.9,1.3c1.7,0.9,3,2,4,3.5s1.4,3.2,1.4,5.1c0,3.2-1.7,7-5.2,11.4
	c-1.8,2.3-5.3,6.6-10.5,12.9l-1.2,1.4C263.5,568.5,263.5,568.6,263.7,568.6z"/>
<path class="st0" d="M281.8,555.9v-2.3c0-0.4,0.2-0.6,0.6-0.6h16.5c0.4,0,0.6,0.2,0.6,0.6v2.3c0,0.4-0.2,0.6-0.6,0.6h-16.5
	C282,556.5,281.8,556.3,281.8,555.9z"/>
<path class="st0" d="M327.5,545.2v17.4c0,3-1,5.5-3,7.3c-2,1.8-4.6,2.7-7.8,2.7c-3.1,0-5.7-0.9-7.6-2.6c-1.9-1.8-2.9-4.1-2.9-6.9
	v-0.8c0-0.4,0.2-0.6,0.6-0.6h2.8c0.4,0,0.6,0.2,0.6,0.6v0.4c0,1.9,0.6,3.4,1.8,4.6c1.2,1.2,2.8,1.8,4.7,1.8c2,0,3.7-0.6,5-1.9
	c1.3-1.2,1.9-2.9,1.9-4.9v-8.1c0-0.1,0-0.1-0.1-0.1c-0.1,0-0.1,0-0.2,0.1c-1.6,2.2-4.1,3.3-7.3,3.3c-2.3,0-4.3-0.5-5.9-1.6
	c-1.6-1-2.8-2.5-3.6-4.4c-0.8-1.6-1.2-3.7-1.2-6.3c0-2.3,0.3-4.1,0.8-5.6c0.8-2.2,2-3.8,3.8-5c1.7-1.2,3.8-1.8,6.4-1.8
	c2.7,0,4.9,0.6,6.8,1.9c1.8,1.3,3.1,3.1,3.8,5.3C327.3,541.4,327.5,543.2,327.5,545.2z M320.6,552.7c1.1-0.8,1.9-1.9,2.4-3.3
	c0.4-1.1,0.6-2.6,0.6-4.5c0-1.6-0.2-3-0.5-4.1c-0.4-1.4-1.2-2.5-2.4-3.4s-2.6-1.3-4.2-1.3c-1.6,0-3,0.4-4.1,1.2
	c-1.2,0.8-2,2-2.4,3.5c-0.4,1-0.6,2.4-0.6,4.2c0,1.9,0.2,3.4,0.7,4.5c0.4,1.3,1.2,2.4,2.3,3.2c1.1,0.8,2.5,1.2,4.1,1.2
	C318,553.9,319.4,553.5,320.6,552.7z"/>
<path class="st0" d="M376.6,536c2,2,3,4.6,3,7.9c0,3.2-1,5.8-3,7.8c-2,2-4.7,3-8,3h-10.9c-0.1,0-0.2,0.1-0.2,0.2v16.6
	c0,0.4-0.2,0.6-0.6,0.6H354c-0.4,0-0.6-0.2-0.6-0.6v-37.9c0-0.4,0.2-0.6,0.6-0.6h14.6C371.9,533,374.6,534,376.6,536z M373.6,549.4
	c1.4-1.4,2.1-3.1,2.1-5.4c0-2.3-0.7-4.1-2.1-5.5s-3.2-2.1-5.3-2.1h-10.6c-0.1,0-0.2,0.1-0.2,0.2v14.5c0,0.1,0.1,0.2,0.2,0.2h10.6
	C370.4,551.4,372.2,550.7,373.6,549.4z"/>
<path class="st0" d="M408.2,533.1h2.9c0.4,0,0.6,0.2,0.6,0.6v37.9c0,0.4-0.2,0.6-0.6,0.6h-2.8c-0.4,0-0.6-0.2-0.6-0.6v-31
	c0-0.1,0-0.2-0.1-0.2c-0.1,0-0.1,0-0.2,0.1l-9.1,13.9c-0.2,0.3-0.4,0.4-0.7,0.4h-1.4c-0.3,0-0.5-0.1-0.7-0.3l-9.1-13.8
	c0-0.1-0.1-0.1-0.2-0.1c-0.1,0-0.1,0.1-0.1,0.2v30.8c0,0.4-0.2,0.6-0.6,0.6h-2.8c-0.4,0-0.6-0.2-0.6-0.6v-37.9
	c0-0.4,0.2-0.6,0.6-0.6h2.9c0.3,0,0.5,0.1,0.7,0.3l10.5,15.9c0,0,0.1,0.1,0.2,0.1c0.1,0,0.1,0,0.2-0.1l10.4-15.8
	C407.7,533.2,407.9,533.1,408.2,533.1z"/>
<path class="st0" d="M253.1,637.8c-2-1-3.5-2.5-4.6-4.3s-1.6-4-1.6-6.5v-15.3c0-2.4,0.5-4.5,1.6-6.4s2.6-3.3,4.6-4.3
	s4.2-1.5,6.8-1.5s4.9,0.5,6.8,1.5c2,1,3.5,2.4,4.6,4.2s1.6,3.9,1.6,6.3c0,0.2-0.1,0.3-0.2,0.4c-0.1,0.1-0.2,0.2-0.4,0.2l-2.8,0.2
	c-0.4,0-0.6-0.2-0.6-0.5v-0.2c0-2.6-0.8-4.7-2.5-6.3c-1.7-1.6-3.9-2.4-6.6-2.4s-5,0.8-6.6,2.4s-2.5,3.7-2.5,6.3v15.6
	c0,2.6,0.8,4.7,2.5,6.3c1.7,1.6,3.9,2.4,6.6,2.4s5-0.8,6.6-2.4c1.7-1.6,2.5-3.7,2.5-6.3v-0.1c0-0.3,0.2-0.5,0.6-0.5l2.8,0.2
	c0.4,0,0.6,0.2,0.6,0.5c0,2.4-0.5,4.5-1.6,6.4s-2.6,3.3-4.6,4.3c-2,1-4.2,1.5-6.8,1.5S255,638.9,253.1,637.8z"/>
<path class="st0" d="M277.2,638.3v-37.9c0-0.4,0.2-0.6,0.6-0.6h2.8c0.4,0,0.6,0.2,0.6,0.6v34.7c0,0.1,0.1,0.2,0.2,0.2H301
	c0.4,0,0.6,0.2,0.6,0.6v2.3c0,0.4-0.2,0.6-0.6,0.6h-23.3C277.3,638.9,277.2,638.7,277.2,638.3z"/>
<path class="st0" d="M308,637.7c-2-1.1-3.6-2.6-4.6-4.5s-1.6-4.2-1.6-6.8v-14c0-2.6,0.5-4.8,1.6-6.8s2.6-3.5,4.6-4.5
	c2-1.1,4.3-1.6,7-1.6c2.6,0,5,0.5,7,1.6c2,1.1,3.6,2.6,4.7,4.5s1.6,4.2,1.6,6.8v14c0,2.6-0.5,4.8-1.6,6.8s-2.7,3.5-4.7,4.5
	c-2,1.1-4.4,1.6-7,1.6C312.3,639.3,310,638.8,308,637.7z M321.8,633.4c1.7-1.7,2.6-4,2.6-6.8v-14.3c0-2.8-0.9-5.1-2.6-6.8
	s-4-2.6-6.8-2.6c-2.8,0-5,0.9-6.7,2.6s-2.6,4-2.6,6.8v14.3c0,2.8,0.9,5.1,2.6,6.8c1.7,1.7,4,2.6,6.7,2.6
	C317.8,635.9,320,635.1,321.8,633.4z"/>
<path class="st0" d="M333.2,636.5c-2.4-1.9-3.6-4.4-3.6-7.6v-1.7c0-0.4,0.2-0.6,0.6-0.6h2.7c0.4,0,0.6,0.2,0.6,0.6v1.5
	c0,2.2,0.9,3.9,2.7,5.2s4.2,2,7.4,2c2.9,0,5-0.6,6.5-1.8s2.2-2.8,2.2-4.8c0-1.3-0.3-2.4-1-3.3c-0.7-0.9-1.7-1.8-3.2-2.6
	s-3.4-1.8-6-2.8c-2.8-1.1-4.9-2.1-6.5-2.9c-1.5-0.8-2.8-1.9-3.7-3.2c-0.9-1.3-1.4-3-1.4-5c0-3.1,1.1-5.5,3.3-7.3
	c2.2-1.7,5.2-2.6,8.9-2.6c4.1,0,7.4,1,9.7,2.9c2.4,1.9,3.6,4.5,3.6,7.7v1.2c0,0.4-0.2,0.6-0.6,0.6h-2.8c-0.4,0-0.6-0.2-0.6-0.6v-1
	c0-2.2-0.8-3.9-2.5-5.3s-4-2.1-7-2.1c-2.6,0-4.7,0.5-6.1,1.6c-1.4,1.1-2.1,2.6-2.1,4.7c0,1.3,0.3,2.4,1,3.3c0.7,0.9,1.7,1.6,3,2.3
	c1.3,0.7,3.3,1.5,5.9,2.5c2.7,1.1,4.9,2.2,6.5,3.1c1.7,1,3,2.1,4,3.5c1,1.4,1.5,3.1,1.5,5.1c0,3.1-1.2,5.6-3.5,7.5
	c-2.3,1.9-5.5,2.8-9.6,2.8C338.9,639.3,335.6,638.4,333.2,636.5z"/>
<path class="st0" d="M383.4,603.4h-20.5c-0.1,0-0.2,0.1-0.2,0.2v13.8c0,0.1,0.1,0.2,0.2,0.2h14.4c0.4,0,0.6,0.2,0.6,0.6v2.3
	c0,0.4-0.2,0.6-0.6,0.6h-14.4c-0.1,0-0.2,0.1-0.2,0.2v14c0,0.1,0.1,0.2,0.2,0.2h20.5c0.4,0,0.6,0.2,0.6,0.6v2.3
	c0,0.4-0.2,0.6-0.6,0.6h-24.1c-0.4,0-0.6-0.2-0.6-0.6v-37.9c0-0.4,0.2-0.6,0.6-0.6h24.1c0.4,0,0.6,0.2,0.6,0.6v2.3
	C383.9,603.2,383.7,603.4,383.4,603.4z"/>
<path class="st0" d="M386.7,638.3v-37.9c0-0.4,0.2-0.6,0.6-0.6h13.1c3.7,0,6.6,1,8.8,2.9c2.2,1.9,3.3,4.5,3.3,7.8v17.5
	c0,3.3-1.1,5.9-3.3,7.8s-5.1,2.9-8.8,2.9h-13.1C386.9,638.9,386.7,638.7,386.7,638.3z M390.9,635.4h9.7c2.4,0,4.3-0.7,5.8-2.1
	c1.4-1.4,2.1-3.3,2.1-5.7v-16.4c0-2.4-0.7-4.3-2.1-5.7c-1.4-1.4-3.3-2.1-5.8-2.1h-9.7c-0.1,0-0.2,0.1-0.2,0.2v31.6
	C390.7,635.3,390.7,635.4,390.9,635.4z"/>
<g id="days">
	<g class="st1">
		<path class="st2" d="M118.6,198.9h5.1c0.2,0,0.3,0.1,0.5,0.2c0.1,0.1,0.2,0.3,0.2,0.5v37.6c0,0.2-0.1,0.3-0.2,0.5
			c-0.1,0.1-0.3,0.2-0.5,0.2h-5.1c-0.2,0-0.3-0.1-0.5-0.2c-0.1-0.1-0.2-0.3-0.2-0.5v-26.6c0-0.1,0-0.2-0.1-0.2c-0.1,0-0.2,0-0.2,0.1
			l-7,10.7c-0.2,0.3-0.4,0.4-0.8,0.4h-2.6c-0.3,0-0.6-0.1-0.8-0.4l-7-10.6c0-0.1-0.1-0.1-0.2-0.1c-0.1,0-0.1,0.1-0.1,0.2v26.5
			c0,0.2-0.1,0.3-0.2,0.5c-0.1,0.1-0.3,0.2-0.5,0.2h-5.1c-0.2,0-0.3-0.1-0.5-0.2c-0.1-0.1-0.2-0.3-0.2-0.5v-37.6
			c0-0.2,0.1-0.3,0.2-0.5c0.1-0.1,0.3-0.2,0.5-0.2h5.1c0.3,0,0.6,0.1,0.8,0.4l9.1,13.8c0.1,0.1,0.1,0.1,0.2,0.1c0.1,0,0.1,0,0.2-0.1
			l9.1-13.8C118,199,118.2,198.9,118.6,198.9z"/>
		<path class="st2" d="M138.3,236.7c-2.2-1.1-3.8-2.7-5-4.8c-1.2-2.1-1.8-4.5-1.8-7.2V212c0-2.7,0.6-5,1.8-7.1
			c1.2-2.1,2.8-3.7,5-4.8c2.1-1.1,4.6-1.7,7.4-1.7c2.8,0,5.3,0.6,7.4,1.7c2.1,1.1,3.8,2.7,5,4.8c1.2,2.1,1.8,4.4,1.8,7.1v12.7
			c0,2.7-0.6,5.1-1.8,7.2c-1.2,2.1-2.8,3.7-5,4.8c-2.1,1.1-4.6,1.7-7.4,1.7C142.9,238.4,140.4,237.8,138.3,236.7z M151.3,230.7
			c1.4-1.4,2.1-3.4,2.1-5.7v-13c0-2.4-0.7-4.3-2.1-5.8c-1.4-1.4-3.3-2.2-5.6-2.2c-2.3,0-4.2,0.7-5.6,2.2c-1.4,1.4-2.1,3.4-2.1,5.8
			v13c0,2.4,0.7,4.3,2.1,5.7c1.4,1.4,3.3,2.2,5.6,2.2C148,232.8,149.9,232.1,151.3,230.7z"/>
		<path class="st2" d="M189.9,199.1c0.1-0.1,0.3-0.2,0.5-0.2h5.1c0.2,0,0.3,0.1,0.5,0.2c0.1,0.1,0.2,0.3,0.2,0.5v37.6
			c0,0.2-0.1,0.3-0.2,0.5c-0.1,0.1-0.3,0.2-0.5,0.2h-5c-0.4,0-0.6-0.1-0.8-0.4l-16-26.3c-0.1-0.1-0.1-0.2-0.2-0.1
			c-0.1,0-0.1,0.1-0.1,0.3l0.1,25.9c0,0.2-0.1,0.3-0.2,0.5c-0.1,0.1-0.3,0.2-0.5,0.2h-5.1c-0.2,0-0.3-0.1-0.5-0.2
			c-0.1-0.1-0.2-0.3-0.2-0.5v-37.6c0-0.2,0.1-0.3,0.2-0.5c0.1-0.1,0.3-0.2,0.5-0.2h5c0.4,0,0.6,0.1,0.8,0.4l16,26.3
			c0.1,0.1,0.1,0.2,0.2,0.1c0.1,0,0.1-0.1,0.1-0.3l-0.1-25.9C189.7,199.4,189.8,199.2,189.9,199.1z"/>
	</g>
	<g class="st1">
		<path class="st2" d="M118.8,265.9c0.1,0.1,0.2,0.3,0.2,0.5v4.3c0,0.2-0.1,0.3-0.2,0.5c-0.1,0.1-0.3,0.2-0.5,0.2H108
			c-0.2,0-0.3,0.1-0.3,0.3V304c0,0.2-0.1,0.3-0.2,0.5c-0.1,0.1-0.3,0.2-0.5,0.2H102c-0.2,0-0.3-0.1-0.5-0.2
			c-0.1-0.1-0.2-0.3-0.2-0.5v-32.4c0-0.2-0.1-0.3-0.3-0.3h-9.9c-0.2,0-0.3-0.1-0.5-0.2c-0.1-0.1-0.2-0.3-0.2-0.5v-4.3
			c0-0.2,0.1-0.3,0.2-0.5c0.1-0.1,0.3-0.2,0.5-0.2h27.1C118.5,265.7,118.6,265.7,118.8,265.9z"/>
		<path class="st2" d="M131.2,303.5c-2.1-1.1-3.8-2.6-4.9-4.6c-1.2-2-1.8-4.3-1.8-6.9v-25.7c0-0.2,0.1-0.3,0.2-0.5
			c0.1-0.1,0.3-0.2,0.5-0.2h5.1c0.2,0,0.3,0.1,0.5,0.2c0.1,0.1,0.2,0.3,0.2,0.5v25.8c0,2.2,0.7,4,2.1,5.3c1.4,1.4,3.2,2.1,5.5,2.1
			c2.3,0,4.1-0.7,5.5-2.1c1.4-1.4,2.1-3.2,2.1-5.3v-25.8c0-0.2,0.1-0.3,0.2-0.5c0.1-0.1,0.3-0.2,0.5-0.2h5.1c0.2,0,0.3,0.1,0.5,0.2
			c0.1,0.1,0.2,0.3,0.2,0.5V292c0,2.6-0.6,4.9-1.7,6.9c-1.2,2-2.8,3.5-4.9,4.6c-2.1,1.1-4.6,1.6-7.3,1.6
			C135.8,305.1,133.4,304.6,131.2,303.5z"/>
		<path class="st2" d="M186.5,271c-0.1,0.1-0.3,0.2-0.5,0.2h-19c-0.2,0-0.3,0.1-0.3,0.3v10.4c0,0.2,0.1,0.3,0.3,0.3h12.7
			c0.2,0,0.3,0.1,0.5,0.2c0.1,0.1,0.2,0.3,0.2,0.5v4.2c0,0.2-0.1,0.3-0.2,0.5c-0.1,0.1-0.3,0.2-0.5,0.2H167c-0.2,0-0.3,0.1-0.3,0.3
			v10.7c0,0.2,0.1,0.3,0.3,0.3h19c0.2,0,0.3,0.1,0.5,0.2c0.1,0.1,0.2,0.3,0.2,0.5v4.2c0,0.2-0.1,0.3-0.2,0.5
			c-0.1,0.1-0.3,0.2-0.5,0.2H161c-0.2,0-0.3-0.1-0.5-0.2c-0.1-0.1-0.2-0.3-0.2-0.5v-37.6c0-0.2,0.1-0.3,0.2-0.5
			c0.1-0.1,0.3-0.2,0.5-0.2H186c0.2,0,0.3,0.1,0.5,0.2c0.1,0.1,0.2,0.3,0.2,0.5v4.2C186.7,270.8,186.6,270.9,186.5,271z"/>
	</g>
	<g class="st1">
		<path class="st2" d="M100.2,370.9l-10.1-37.7L90,333c0-0.3,0.2-0.5,0.6-0.5h5.5c0.4,0,0.7,0.2,0.8,0.6l6.3,25.4
			c0,0.1,0.1,0.2,0.2,0.2c0.1,0,0.1-0.1,0.2-0.2l6.1-25.4c0.1-0.4,0.4-0.6,0.7-0.6h5.3c0.4,0,0.7,0.2,0.8,0.6l6.5,25.4
			c0,0.1,0.1,0.2,0.2,0.2c0.1,0,0.1-0.1,0.2-0.2l6.2-25.4c0.1-0.4,0.4-0.6,0.8-0.6h5.2c0.5,0,0.7,0.2,0.6,0.7l-9.6,37.7
			c-0.1,0.4-0.4,0.6-0.8,0.6h-5.2c-0.4,0-0.7-0.2-0.8-0.6l-6.5-26.6c0-0.1-0.1-0.2-0.2-0.2c-0.1,0-0.1,0-0.2,0.2l-6.2,26.6
			c-0.1,0.4-0.4,0.6-0.7,0.6H101C100.6,371.4,100.3,371.3,100.2,370.9z"/>
	</g>
	<g class="st1">
		<path class="st2" d="M167.2,337.9c-0.1,0.1-0.3,0.2-0.5,0.2h-19c-0.2,0-0.3,0.1-0.3,0.3v10.4c0,0.2,0.1,0.3,0.3,0.3h12.7
			c0.2,0,0.3,0.1,0.5,0.2c0.1,0.1,0.2,0.3,0.2,0.5v4.2c0,0.2-0.1,0.3-0.2,0.5c-0.1,0.1-0.3,0.2-0.5,0.2h-12.7
			c-0.2,0-0.3,0.1-0.3,0.3v10.7c0,0.2,0.1,0.3,0.3,0.3h19c0.2,0,0.3,0.1,0.5,0.2c0.1,0.1,0.2,0.3,0.2,0.5v4.2c0,0.2-0.1,0.3-0.2,0.5
			c-0.1,0.1-0.3,0.2-0.5,0.2h-25.1c-0.2,0-0.3-0.1-0.5-0.2c-0.1-0.1-0.2-0.3-0.2-0.5v-37.6c0-0.2,0.1-0.3,0.2-0.5
			c0.1-0.1,0.3-0.2,0.5-0.2h25.1c0.2,0,0.3,0.1,0.5,0.2c0.1,0.1,0.2,0.3,0.2,0.5v4.2C167.4,337.6,167.4,337.7,167.2,337.9z"/>
		<path class="st2" d="M174.2,371.3c-0.1-0.1-0.2-0.3-0.2-0.5v-37.6c0-0.2,0.1-0.3,0.2-0.5c0.1-0.1,0.3-0.2,0.5-0.2h13.6
			c2.6,0,5,0.5,7,1.4c2,0.9,3.6,2.3,4.6,4c1.1,1.7,1.6,3.7,1.6,6V360c0,2.3-0.5,4.3-1.6,6c-1.1,1.7-2.6,3.1-4.6,4
			c-2,0.9-4.3,1.4-7,1.4h-13.6C174.5,371.4,174.3,371.4,174.2,371.3z M180.7,365.9h7.8c2,0,3.5-0.6,4.7-1.9c1.2-1.2,1.8-2.9,1.8-5
			v-14.1c0-2.1-0.6-3.8-1.8-5c-1.2-1.2-2.8-1.9-4.8-1.9h-7.7c-0.2,0-0.3,0.1-0.3,0.3v27.3C180.5,365.8,180.6,365.9,180.7,365.9z"/>
	</g>
	<g class="st1">
		<path class="st2" d="M118.8,399.5c0.1,0.1,0.2,0.3,0.2,0.5v4.3c0,0.2-0.1,0.3-0.2,0.5c-0.1,0.1-0.3,0.2-0.5,0.2H108
			c-0.2,0-0.3,0.1-0.3,0.3v32.4c0,0.2-0.1,0.3-0.2,0.5c-0.1,0.1-0.3,0.2-0.5,0.2H102c-0.2,0-0.3-0.1-0.5-0.2
			c-0.1-0.1-0.2-0.3-0.2-0.5v-32.4c0-0.2-0.1-0.3-0.3-0.3h-9.9c-0.2,0-0.3-0.1-0.5-0.2c-0.1-0.1-0.2-0.3-0.2-0.5V400
			c0-0.2,0.1-0.3,0.2-0.5c0.1-0.1,0.3-0.2,0.5-0.2h27.1C118.5,399.3,118.6,399.4,118.8,399.5z"/>
		<path class="st2" d="M146.3,399.5c0.1-0.1,0.3-0.2,0.5-0.2h5.1c0.2,0,0.3,0.1,0.5,0.2c0.1,0.1,0.2,0.3,0.2,0.5v37.6
			c0,0.2-0.1,0.3-0.2,0.5c-0.1,0.1-0.3,0.2-0.5,0.2h-5.1c-0.2,0-0.3-0.1-0.5-0.2c-0.1-0.1-0.2-0.3-0.2-0.5v-15.9
			c0-0.2-0.1-0.3-0.3-0.3h-14.2c-0.2,0-0.3,0.1-0.3,0.3v15.9c0,0.2-0.1,0.3-0.2,0.5c-0.1,0.1-0.3,0.2-0.5,0.2h-5.1
			c-0.2,0-0.3-0.1-0.5-0.2c-0.1-0.1-0.2-0.3-0.2-0.5V400c0-0.2,0.1-0.3,0.2-0.5c0.1-0.1,0.3-0.2,0.5-0.2h5.1c0.2,0,0.3,0.1,0.5,0.2
			c0.1,0.1,0.2,0.3,0.2,0.5v15.6c0,0.2,0.1,0.3,0.3,0.3h14.2c0.2,0,0.3-0.1,0.3-0.3V400C146.1,399.8,146.2,399.6,146.3,399.5z"/>
		<path class="st2" d="M166.7,437.1c-2.1-1.1-3.8-2.6-4.9-4.6c-1.2-2-1.8-4.3-1.8-6.9V400c0-0.2,0.1-0.3,0.2-0.5
			c0.1-0.1,0.3-0.2,0.5-0.2h5.1c0.2,0,0.3,0.1,0.5,0.2c0.1,0.1,0.2,0.3,0.2,0.5v25.8c0,2.2,0.7,4,2.1,5.3c1.4,1.4,3.2,2.1,5.5,2.1
			c2.3,0,4.1-0.7,5.5-2.1c1.4-1.4,2.1-3.2,2.1-5.3V400c0-0.2,0.1-0.3,0.2-0.5c0.1-0.1,0.3-0.2,0.5-0.2h5.1c0.2,0,0.3,0.1,0.5,0.2
			c0.1,0.1,0.2,0.3,0.2,0.5v25.7c0,2.6-0.6,4.9-1.7,6.9c-1.2,2-2.8,3.5-4.9,4.6c-2.1,1.1-4.6,1.6-7.3,1.6
			C171.3,438.7,168.8,438.2,166.7,437.1z"/>
	</g>
	<g class="st1">
		<path class="st2" d="M118.8,471.5c-0.1,0.1-0.3,0.2-0.5,0.2H99.4c-0.2,0-0.3,0.1-0.3,0.3v10.4c0,0.2,0.1,0.3,0.3,0.3h12.7
			c0.2,0,0.3,0.1,0.5,0.2c0.1,0.1,0.2,0.3,0.2,0.5v4.2c0,0.2-0.1,0.3-0.2,0.5c-0.1,0.1-0.3,0.2-0.5,0.2H99.4c-0.2,0-0.3,0.1-0.3,0.3
			v15.9c0,0.2-0.1,0.3-0.2,0.5c-0.1,0.1-0.3,0.2-0.5,0.2h-5.1c-0.2,0-0.3-0.1-0.5-0.2c-0.1-0.1-0.2-0.3-0.2-0.5v-37.6
			c0-0.2,0.1-0.3,0.2-0.5c0.1-0.1,0.3-0.2,0.5-0.2h25c0.2,0,0.3,0.1,0.5,0.2c0.1,0.1,0.2,0.3,0.2,0.5v4.2
			C119,471.2,118.9,471.3,118.8,471.5z"/>
		<path class="st2" d="M145.1,504.6l-7.3-16c-0.1-0.1-0.2-0.2-0.3-0.2h-6.7c-0.2,0-0.3,0.1-0.3,0.3v15.8c0,0.2-0.1,0.3-0.2,0.5
			c-0.1,0.1-0.3,0.2-0.5,0.2h-5.1c-0.2,0-0.3-0.1-0.5-0.2c-0.1-0.1-0.2-0.3-0.2-0.5v-37.6c0-0.2,0.1-0.3,0.2-0.5
			c0.1-0.1,0.3-0.2,0.5-0.2H140c2.3,0,4.3,0.5,6,1.4c1.7,0.9,3.1,2.3,4.1,4c1,1.7,1.4,3.7,1.4,5.9c0,2.6-0.7,4.7-2,6.5
			c-1.3,1.8-3.1,3.1-5.5,3.8c-0.1,0-0.1,0-0.2,0.1c0,0.1,0,0.1,0,0.2l7.8,16.2c0.1,0.1,0.1,0.3,0.1,0.3c0,0.3-0.2,0.4-0.6,0.4h-5.3
			C145.5,505.1,145.3,504.9,145.1,504.6z M130.5,471.9V483c0,0.2,0.1,0.3,0.3,0.3h8.4c1.8,0,3.2-0.5,4.3-1.6
			c1.1-1.1,1.6-2.5,1.6-4.2c0-1.7-0.5-3.2-1.6-4.2c-1.1-1.1-2.5-1.6-4.3-1.6h-8.4C130.6,471.7,130.5,471.8,130.5,471.9z"/>
		<path class="st2" d="M158.3,504.9c-0.1-0.1-0.2-0.3-0.2-0.5v-37.6c0-0.2,0.1-0.3,0.2-0.5c0.1-0.1,0.3-0.2,0.5-0.2h5.1
			c0.2,0,0.3,0.1,0.5,0.2c0.1,0.1,0.2,0.3,0.2,0.5v37.6c0,0.2-0.1,0.3-0.2,0.5c-0.1,0.1-0.3,0.2-0.5,0.2h-5.1
			C158.6,505.1,158.5,505,158.3,504.9z"/>
	</g>
	<g class="st1">
		<path class="st2" d="M97.7,570.9c-2.2-0.9-3.8-2.2-5-3.9c-1.2-1.7-1.8-3.6-1.8-5.9v-1.4c0-0.2,0.1-0.3,0.2-0.5
			c0.1-0.1,0.3-0.2,0.5-0.2h5c0.2,0,0.3,0.1,0.5,0.2c0.1,0.1,0.2,0.3,0.2,0.5v1.1c0,1.7,0.8,3.1,2.3,4.3c1.5,1.1,3.6,1.7,6.2,1.7
			c2.3,0,4-0.5,5.1-1.4c1.1-1,1.7-2.2,1.7-3.7c0-1-0.3-1.9-0.9-2.6c-0.6-0.7-1.5-1.4-2.7-2c-1.2-0.6-2.9-1.3-5.3-2.2
			c-2.6-1-4.8-1.9-6.4-2.7c-1.6-0.9-3-2-4.1-3.5c-1.1-1.5-1.6-3.3-1.6-5.5c0-3.3,1.2-5.8,3.6-7.7c2.4-1.9,5.5-2.8,9.5-2.8
			c2.8,0,5.2,0.5,7.4,1.4c2.1,1,3.8,2.3,5,4c1.2,1.7,1.8,3.7,1.8,6v0.9c0,0.2-0.1,0.3-0.2,0.5c-0.1,0.1-0.3,0.2-0.5,0.2h-5
			c-0.2,0-0.3-0.1-0.5-0.2c-0.1-0.1-0.2-0.3-0.2-0.5v-0.6c0-1.7-0.7-3.2-2.1-4.4c-1.4-1.2-3.4-1.8-5.9-1.8c-2,0-3.6,0.4-4.8,1.3
			c-1.1,0.9-1.7,2.1-1.7,3.6c0,1.1,0.3,2,0.9,2.7c0.6,0.7,1.5,1.3,2.7,1.9c1.2,0.6,3,1.3,5.5,2.2c2.6,1,4.7,1.9,6.3,2.7
			c1.6,0.8,2.9,2,4.1,3.4c1.1,1.5,1.7,3.3,1.7,5.5c0,3.3-1.2,6-3.7,8c-2.5,2-5.8,3-10.1,3C102.4,572.3,99.8,571.8,97.7,570.9z"/>
	</g>
	<g class="st1">
		<path class="st2" d="M149,571.3l-1.8-6c-0.1-0.1-0.2-0.2-0.3-0.2h-14.7c-0.1,0-0.2,0.1-0.3,0.2l-1.8,6c-0.1,0.4-0.4,0.6-0.7,0.6
			h-5.6c-0.2,0-0.4-0.1-0.5-0.2c-0.1-0.1-0.1-0.3-0.1-0.6l12.1-37.6c0.1-0.4,0.4-0.6,0.7-0.6h7c0.4,0,0.6,0.2,0.7,0.6l12.1,37.6
			c0,0.1,0.1,0.2,0.1,0.3c0,0.3-0.2,0.5-0.6,0.5h-5.6C149.4,571.9,149.1,571.7,149,571.3z M133.9,560.1h11.3c0.2,0,0.3-0.1,0.2-0.3
			l-5.7-18.6c0-0.1-0.1-0.2-0.2-0.2c-0.1,0-0.1,0.1-0.2,0.2l-5.7,18.6C133.6,560,133.7,560.1,133.9,560.1z"/>
	</g>
	<g class="st1">
		<path class="st2" d="M183.4,533.1c0.1,0.1,0.2,0.3,0.2,0.5v4.3c0,0.2-0.1,0.3-0.2,0.5c-0.1,0.1-0.3,0.2-0.5,0.2h-10.2
			c-0.2,0-0.3,0.1-0.3,0.3v32.4c0,0.2-0.1,0.3-0.2,0.5c-0.1,0.1-0.3,0.2-0.5,0.2h-5.1c-0.2,0-0.3-0.1-0.5-0.2
			c-0.1-0.1-0.2-0.3-0.2-0.5v-32.4c0-0.2-0.1-0.3-0.3-0.3h-9.9c-0.2,0-0.3-0.1-0.5-0.2c-0.1-0.1-0.2-0.3-0.2-0.5v-4.3
			c0-0.2,0.1-0.3,0.2-0.5c0.1-0.1,0.3-0.2,0.5-0.2h27.1C183.1,532.9,183.3,533,183.4,533.1z"/>
	</g>
	<g class="st1">
		<path class="st2" d="M97.7,637.7c-2.2-0.9-3.8-2.2-5-3.9c-1.2-1.7-1.8-3.6-1.8-5.9v-1.4c0-0.2,0.1-0.3,0.2-0.5
			c0.1-0.1,0.3-0.2,0.5-0.2h5c0.2,0,0.3,0.1,0.5,0.2c0.1,0.1,0.2,0.3,0.2,0.5v1.1c0,1.7,0.8,3.1,2.3,4.3c1.5,1.1,3.6,1.7,6.2,1.7
			c2.3,0,4-0.5,5.1-1.4c1.1-1,1.7-2.2,1.7-3.7c0-1-0.3-1.9-0.9-2.6c-0.6-0.7-1.5-1.4-2.7-2c-1.2-0.6-2.9-1.3-5.3-2.2
			c-2.6-1-4.8-1.9-6.4-2.7c-1.6-0.9-3-2-4.1-3.5c-1.1-1.5-1.6-3.3-1.6-5.5c0-3.3,1.2-5.8,3.6-7.7c2.4-1.9,5.5-2.8,9.5-2.8
			c2.8,0,5.2,0.5,7.4,1.4c2.1,1,3.8,2.3,5,4c1.2,1.7,1.8,3.7,1.8,6v0.9c0,0.2-0.1,0.3-0.2,0.5c-0.1,0.1-0.3,0.2-0.5,0.2h-5
			c-0.2,0-0.3-0.1-0.5-0.2c-0.1-0.1-0.2-0.3-0.2-0.5v-0.6c0-1.7-0.7-3.2-2.1-4.4c-1.4-1.2-3.4-1.8-5.9-1.8c-2,0-3.6,0.4-4.8,1.3
			c-1.1,0.9-1.7,2.1-1.7,3.6c0,1.1,0.3,2,0.9,2.7c0.6,0.7,1.5,1.3,2.7,1.9c1.2,0.6,3,1.3,5.5,2.2c2.6,1,4.7,1.9,6.3,2.7
			c1.6,0.8,2.9,2,4.1,3.4c1.1,1.5,1.7,3.3,1.7,5.5c0,3.3-1.2,6-3.7,8c-2.5,2-5.8,3-10.1,3C102.4,639.1,99.8,638.7,97.7,637.7z"/>
		<path class="st2" d="M131.9,637.5c-2.1-1.1-3.8-2.6-4.9-4.6c-1.2-2-1.8-4.3-1.8-6.9v-25.7c0-0.2,0.1-0.3,0.2-0.5
			c0.1-0.1,0.3-0.2,0.5-0.2h5.1c0.2,0,0.3,0.1,0.5,0.2c0.1,0.1,0.2,0.3,0.2,0.5v25.8c0,2.2,0.7,4,2.1,5.3c1.4,1.4,3.2,2.1,5.5,2.1
			c2.3,0,4.1-0.7,5.5-2.1c1.4-1.4,2.1-3.2,2.1-5.3v-25.8c0-0.2,0.1-0.3,0.2-0.5c0.1-0.1,0.3-0.2,0.5-0.2h5.1c0.2,0,0.3,0.1,0.5,0.2
			c0.1,0.1,0.2,0.3,0.2,0.5V626c0,2.6-0.6,4.9-1.7,6.9c-1.2,2-2.8,3.5-4.9,4.6c-2.1,1.1-4.6,1.6-7.3,1.6
			C136.5,639.1,134,638.6,131.9,637.5z"/>
		<path class="st2" d="M183.8,599.9c0.1-0.1,0.3-0.2,0.5-0.2h5.1c0.2,0,0.3,0.1,0.5,0.2c0.1,0.1,0.2,0.3,0.2,0.5V638
			c0,0.2-0.1,0.3-0.2,0.5c-0.1,0.1-0.3,0.2-0.5,0.2h-5c-0.4,0-0.6-0.1-0.8-0.4l-16-26.3c-0.1-0.1-0.1-0.2-0.2-0.1
			c-0.1,0-0.1,0.1-0.1,0.3l0.1,25.9c0,0.2-0.1,0.3-0.2,0.5c-0.1,0.1-0.3,0.2-0.5,0.2h-5.1c-0.2,0-0.3-0.1-0.5-0.2
			c-0.1-0.1-0.2-0.3-0.2-0.5v-37.6c0-0.2,0.1-0.3,0.2-0.5c0.1-0.1,0.3-0.2,0.5-0.2h5c0.4,0,0.6,0.1,0.8,0.4l16,26.3
			c0.1,0.1,0.1,0.2,0.2,0.1c0.1,0,0.1-0.1,0.1-0.3l-0.1-25.9C183.6,600.2,183.7,600,183.8,599.9z"/>
	</g>
	<path class="st3" d="M260.8,69.5v1.2c0,0.2-0.1,0.3-0.3,0.3H255c-0.1,0-0.1,0-0.1,0.1c0,0,0,0,0,0v17.3c0,0.2-0.1,0.3-0.3,0.3h-1.4
		c-0.2,0-0.3-0.1-0.3-0.3V71c0-0.1,0-0.1-0.1-0.1c0,0,0,0,0,0h-5.2c-0.1,0-0.3-0.1-0.3-0.2c0,0,0,0,0-0.1v-1.2
		c0-0.1,0.1-0.3,0.2-0.3c0,0,0,0,0.1,0h12.9C260.7,69.2,260.8,69.3,260.8,69.5C260.8,69.5,260.8,69.5,260.8,69.5z"/>
	<path class="st3" d="M275.9,69.2h1.4c0.1,0,0.3,0.1,0.3,0.2c0,0,0,0,0,0.1v18.9c0,0.2-0.1,0.3-0.3,0.3h-1.4c-0.1,0-0.3-0.1-0.3-0.2
		c0,0,0,0,0-0.1v-8.5c0-0.1,0-0.1-0.1-0.1h-8.9c-0.1,0-0.1,0-0.1,0.1v8.5c0,0.1-0.1,0.3-0.2,0.3c0,0,0,0-0.1,0h-1.4
		c-0.1,0-0.3-0.1-0.3-0.2c0,0,0,0,0-0.1V69.5c0-0.1,0.1-0.3,0.2-0.3c0,0,0,0,0.1,0h1.4c0.1,0,0.3,0.1,0.3,0.2c0,0,0,0,0,0.1v8.4
		c0,0.1,0,0.1,0.1,0.1h8.9c0.1,0,0.1,0,0.1-0.1v-8.4C275.7,69.3,275.7,69.2,275.9,69.2z"/>
	<path class="st3" d="M295.1,70.9h-10.2c-0.1,0-0.1,0-0.1,0.1c0,0,0,0,0,0v6.9c0,0.1,0,0.1,0.1,0.1c0,0,0,0,0,0h7.2
		c0.1,0,0.3,0.1,0.3,0.2c0,0,0,0,0,0.1v1.2c0,0.1-0.1,0.3-0.2,0.3c0,0,0,0-0.1,0h-7.2c-0.1,0-0.1,0-0.1,0.1c0,0,0,0,0,0v7
		c0,0.1,0,0.1,0.1,0.1c0,0,0,0,0,0h10.2c0.1,0,0.3,0.1,0.3,0.2c0,0,0,0.1,0,0.1v1.2c0,0.1-0.1,0.3-0.2,0.3c0,0,0,0-0.1,0H283
		c-0.1,0-0.3-0.1-0.3-0.2c0,0,0,0,0-0.1V69.5c0-0.1,0.1-0.3,0.2-0.3c0,0,0,0,0.1,0h12.1c0.1,0,0.3,0.1,0.3,0.2c0,0,0,0,0,0.1v1.2
		C295.4,70.8,295.3,70.9,295.1,70.9z"/>
	<path class="st4" d="M305.9,88.4V68.5c0-0.1,0.1-0.3,0.2-0.3c0,0,0,0,0.1,0h2.2c0.1,0,0.3,0.1,0.3,0.2c0,0,0,0,0,0.1v17.6
		c0,0.1,0,0.1,0.1,0.1c0,0,0,0,0,0h10.1c0.1,0,0.3,0.1,0.3,0.2c0,0,0,0,0,0.1v1.9c0,0.1-0.1,0.3-0.2,0.3c0,0,0,0-0.1,0h-12.7
		C306,88.7,305.9,88.6,305.9,88.4z"/>
	<path class="st4" d="M322.5,88.4V68.5c0-0.1,0.1-0.3,0.2-0.3c0,0,0,0,0.1,0h2.2c0.1,0,0.3,0.1,0.3,0.2c0,0,0,0,0,0.1v19.9
		c0,0.1-0.1,0.3-0.2,0.3c0,0,0,0-0.1,0h-2.2C322.7,88.7,322.6,88.6,322.5,88.4C322.5,88.4,322.5,88.4,322.5,88.4z"/>
	<path class="st4" d="M341,78.2c2,0.8,3.3,2.7,3.1,4.9c0.1,1.6-0.6,3.1-1.8,4.1c-1.3,1-3,1.5-4.6,1.5h-7.3c-0.1,0-0.3-0.1-0.3-0.2
		c0,0,0,0,0-0.1V68.5c0-0.1,0.1-0.3,0.2-0.3c0,0,0,0,0.1,0h7c1.7-0.1,3.4,0.4,4.7,1.4c1.2,1,1.8,2.5,1.7,4c0.1,1.9-1,3.7-2.8,4.4
		C340.9,78.1,340.9,78.1,341,78.2z M332.9,70.7v6.2c0,0.1,0,0.1,0.1,0.1h4.4c1,0.1,1.9-0.2,2.7-0.8c0.7-0.6,1-1.4,1-2.3
		c0-0.9-0.3-1.8-1-2.4c-0.8-0.6-1.7-0.9-2.7-0.9H333C333,70.6,332.9,70.6,332.9,70.7C332.9,70.7,332.9,70.7,332.9,70.7L332.9,70.7z
		 M340.4,85.3c1.3-1.4,1.3-3.6,0-5c-0.8-0.6-1.7-1-2.7-0.9h-4.6c-0.1,0-0.1,0-0.1,0.1c0,0,0,0,0,0v6.6c0,0.1,0,0.1,0.1,0.1
		c0,0,0,0,0,0h4.6C338.7,86.2,339.6,85.9,340.4,85.3L340.4,85.3z"/>
	<path class="st4" d="M359.7,88.4l-4.1-8.7c0-0.1-0.1-0.1-0.1-0.1h-4.2c-0.1,0-0.1,0-0.1,0.1c0,0,0,0,0,0v8.6c0,0.1-0.1,0.3-0.2,0.3
		c0,0,0,0-0.1,0h-2.2c-0.1,0-0.3-0.1-0.3-0.2c0,0,0,0,0-0.1V68.5c0-0.1,0.1-0.3,0.2-0.3c0,0,0,0,0.1,0h7.9c1.1,0,2.1,0.2,3.1,0.7
		c0.9,0.5,1.6,1.2,2.1,2c0.5,0.9,0.7,2,0.7,3c0,1.2-0.3,2.5-1.1,3.5c-0.7,1-1.8,1.6-3,1.9c-0.1,0-0.1,0.1-0.1,0.1l4.2,8.7
		c0,0,0,0.1,0,0.1c0,0.1-0.1,0.2-0.2,0.2H360C359.9,88.6,359.7,88.6,359.7,88.4z M351.2,70.8v6.6c0,0.1,0,0.1,0.1,0.1c0,0,0,0,0,0
		h4.8c0.9,0,1.8-0.3,2.5-0.9c0.6-0.6,1-1.5,0.9-2.4c0.1-1.8-1.2-3.3-3-3.4c-0.1,0-0.3,0-0.4,0h-4.9
		C351.2,70.6,351.2,70.6,351.2,70.8z"/>
	<path class="st4" d="M379.2,88.4l-1.1-3.4c0-0.1-0.1-0.1-0.1-0.1h-8.2c-0.1,0-0.1,0-0.1,0.1l-1,3.4c0,0.2-0.2,0.3-0.4,0.2h-2.4
		c-0.2,0-0.3-0.1-0.2-0.3l6.4-19.9c0-0.2,0.2-0.3,0.4-0.2h2.9c0.2,0,0.3,0.1,0.3,0.2l6.5,19.9v0.1c0,0.1-0.1,0.2-0.3,0.2h-2.4
		C379.4,88.7,379.2,88.6,379.2,88.4z M370.4,82.7c0,0,0.1,0,0.1,0h6.7c0,0,0.1,0,0.1,0c0,0,0-0.1,0-0.1l-3.4-10.8c0,0,0-0.1-0.1-0.1
		c0,0-0.1,0-0.1,0.1l-3.4,10.8C370.4,82.6,370.4,82.7,370.4,82.7z"/>
	<path class="st4" d="M396.8,88.4l-4.1-8.7c0-0.1-0.1-0.1-0.1-0.1h-4.2c-0.1,0-0.1,0-0.1,0.1v8.6c0,0.1-0.1,0.3-0.2,0.3
		c0,0,0,0-0.1,0h-2.2c-0.1,0-0.3-0.1-0.3-0.2c0,0,0,0,0-0.1V68.5c0-0.1,0.1-0.3,0.2-0.3c0,0,0,0,0.1,0h7.8c1.1,0,2.1,0.2,3.1,0.7
		c0.9,0.5,1.6,1.2,2.1,2c0.5,0.9,0.8,2,0.7,3c0,1.2-0.3,2.5-1.1,3.5c-0.7,1-1.8,1.6-3,1.9c-0.1,0-0.1,0.1-0.1,0.1l4.2,8.7
		c0,0,0,0.1,0,0.1c0,0.1-0.1,0.2-0.2,0.2h-2.3C397,88.6,396.9,88.6,396.8,88.4z M388.3,70.8v6.6c0,0.1,0,0.1,0.1,0.1c0,0,0,0,0,0
		h4.9c0.9,0,1.8-0.3,2.5-0.9c0.6-0.6,1-1.5,0.9-2.4c0.1-1.8-1.2-3.3-3-3.4c-0.1,0-0.3,0-0.4,0h-4.9
		C388.3,70.6,388.3,70.6,388.3,70.8z"/>
	<path class="st4" d="M407.6,88.3v-8.2c0,0,0-0.1,0-0.1l-6.1-11.4c0,0,0-0.1,0-0.1c0-0.1,0.1-0.2,0.2-0.2h2.4c0.1,0,0.3,0.1,0.4,0.2
		L409,77c0,0,0,0.1,0.1,0.1c0,0,0.1,0,0.1-0.1l4.5-8.6c0.1-0.1,0.2-0.2,0.4-0.2h2.4c0.1,0,0.2,0,0.2,0.1c0.1,0.1,0.1,0.2,0,0.3
		L410.5,80c0,0,0,0.1,0,0.1v8.2c0,0.1-0.1,0.3-0.2,0.3c0,0,0,0-0.1,0H408c-0.1,0.1-0.3,0.1-0.4,0C407.6,88.5,407.6,88.4,407.6,88.3z
		"/>
	<path class="st3" d="M429.2,88.1c-1-0.5-1.8-1.3-2.3-2.3c-0.6-1-0.8-2.2-0.8-3.4v-7c0-1.2,0.3-2.3,0.8-3.4c0.5-1,1.4-1.7,2.3-2.3
		c1.1-0.6,2.3-0.8,3.5-0.8c1.2,0,2.4,0.3,3.5,0.8c1,0.5,1.8,1.3,2.3,2.3c0.6,1,0.9,2.2,0.8,3.4v7c0,1.2-0.3,2.3-0.8,3.4
		c-0.5,1-1.3,1.8-2.3,2.3c-1.1,0.6-2.3,0.8-3.5,0.8C431.5,88.9,430.3,88.6,429.2,88.1z M436.1,85.9c0.9-0.9,1.3-2.1,1.3-3.4v-7.1
		c0.1-1.3-0.4-2.5-1.3-3.4c-0.9-0.9-2.1-1.3-3.4-1.3c-1.3-0.1-2.5,0.4-3.4,1.3c-0.9,0.9-1.3,2.1-1.3,3.4v7.1c0,1.3,0.4,2.5,1.3,3.4
		c0.9,0.9,2.1,1.3,3.4,1.3C433.9,87.2,435.2,86.8,436.1,85.9z"/>
	<path class="st3" d="M456.3,70.9h-10.2c-0.1,0-0.1,0-0.1,0.1c0,0,0,0,0,0v6.9c0,0.1,0,0.1,0.1,0.1c0,0,0,0,0,0h7.2
		c0.1,0,0.3,0.1,0.3,0.2c0,0,0,0,0,0.1v1.2c0,0.1-0.1,0.3-0.2,0.3c0,0,0,0-0.1,0h-7.2c-0.1,0-0.1,0-0.1,0.1c0,0,0,0,0,0v8.5
		c0,0.1-0.1,0.3-0.2,0.3c0,0,0,0-0.1,0h-1.5c-0.1,0-0.3-0.1-0.3-0.2c0,0,0,0,0-0.1V69.5c0-0.2,0.1-0.3,0.3-0.3h12
		c0.1,0,0.3,0.1,0.3,0.2c0,0,0,0,0,0.1v1.2C456.6,70.8,456.5,70.9,456.3,70.9C456.3,70.9,456.3,70.9,456.3,70.9z"/>
	<path class="st4" d="M261.6,99h3.6c0.1,0,0.2,0,0.3,0.1c0.1,0.1,0.1,0.2,0.1,0.3v20.8c0,0.2-0.1,0.4-0.3,0.4c0,0,0,0,0,0h-3.6
		c-0.1,0-0.2,0-0.3-0.1c-0.1-0.1-0.1-0.2-0.1-0.3v-13.6c0-0.1,0-0.1-0.1-0.1c-0.1,0-0.1,0-0.1,0.1l-3.3,5.1
		c-0.1,0.2-0.3,0.2-0.4,0.2h-1.9c-0.2,0-0.3-0.1-0.4-0.2l-3.3-5.1c0-0.1-0.1-0.1-0.1-0.1c0,0-0.1,0.1-0.1,0.1v13.6
		c0,0.2-0.1,0.4-0.3,0.4c0,0,0,0,0,0h-3.6c-0.2,0-0.4-0.1-0.4-0.3c0,0,0,0,0,0V99.4c0-0.1,0-0.2,0.1-0.3c0.1-0.1,0.2-0.1,0.3-0.1
		h3.6c0.2,0,0.3,0.1,0.4,0.2l4.6,7.2c0.1,0.1,0.1,0.1,0.2,0l4.6-7.2C261.2,99.1,261.4,99,261.6,99z"/>
	<path class="st4" d="M272.9,119.9c-1.2-0.6-2.1-1.5-2.8-2.6c-0.7-1.2-1-2.5-1-3.9v-14c0-0.1,0-0.2,0.1-0.3c0.1-0.1,0.2-0.1,0.3-0.1
		h3.6c0.1,0,0.2,0,0.3,0.1c0.1,0.1,0.1,0.2,0.1,0.3v14.1c-0.1,1.9,1.3,3.5,3.2,3.6c0.1,0,0.3,0,0.4,0c1.9,0.1,3.5-1.3,3.6-3.2
		c0-0.1,0-0.3,0-0.4V99.4c0-0.1,0-0.2,0.1-0.3c0.1-0.1,0.2-0.1,0.3-0.1h3.6c0.2,0,0.4,0.1,0.4,0.3c0,0,0,0,0,0v14.1
		c0,1.4-0.3,2.7-1,3.9c-0.7,1.1-1.6,2-2.8,2.6c-1.3,0.6-2.7,1-4.2,0.9C275.7,120.9,274.3,120.5,272.9,119.9z"/>
	<path class="st4" d="M291.8,120c-1.1-0.5-2.1-1.2-2.8-2.3c-0.7-1-1-2.2-1-3.4v-0.7c0-0.1,0-0.2,0.1-0.3c0.1-0.1,0.2-0.1,0.3-0.1
		h3.5c0.1,0,0.2,0,0.3,0.1c0.1,0.1,0.1,0.2,0.1,0.3v0.5c0,0.8,0.4,1.6,1.1,2.1c0.9,0.6,2,0.9,3.1,0.8c0.9,0.1,1.7-0.2,2.4-0.7
		c0.5-0.4,0.8-1,0.8-1.7c0-0.5-0.2-0.9-0.5-1.2c-0.4-0.4-0.8-0.7-1.3-0.9c-0.6-0.3-1.5-0.6-2.7-1.1c-1.2-0.4-2.4-0.9-3.5-1.5
		c-0.9-0.5-1.8-1.2-2.4-2c-0.7-0.9-1-2-1-3.2c0-1.1,0.3-2.3,0.9-3.2c0.7-0.9,1.6-1.7,2.7-2.1c1.2-0.5,2.6-0.8,3.9-0.7
		c1.4,0,2.9,0.3,4.2,0.8c1.2,0.5,2.1,1.3,2.9,2.3c0.7,1,1.1,2.2,1,3.5v0.5c0,0.2-0.2,0.4-0.4,0.4h-3.5c-0.2,0-0.4-0.2-0.4-0.4v-0.3
		c0-0.9-0.4-1.7-1.1-2.2c-0.8-0.7-1.9-1-2.9-0.9c-0.8,0-1.6,0.2-2.3,0.6c-0.5,0.4-0.8,1-0.8,1.7c0,0.5,0.2,0.9,0.5,1.3
		c0.4,0.4,0.9,0.7,1.4,0.9c0.6,0.3,1.6,0.6,2.9,1.1c1.5,0.5,2.6,1,3.4,1.4c0.9,0.5,1.6,1.1,2.3,1.9c0.7,0.9,1.1,2,1,3.2
		c0.1,1.8-0.7,3.5-2.1,4.6c-1.7,1.2-3.7,1.8-5.8,1.7C294.6,120.8,293.1,120.6,291.8,120z"/>
	<path class="st4" d="M307.1,120.5c-0.1-0.1-0.1-0.2-0.1-0.3V99.4c0-0.1,0-0.2,0.1-0.3c0.1-0.1,0.2-0.1,0.3-0.1h3.6
		c0.1,0,0.2,0,0.3,0.1c0.1,0.1,0.1,0.2,0.1,0.3v20.8c0,0.1,0,0.2-0.1,0.3c-0.1,0.1-0.2,0.1-0.3,0.1h-3.6
		C307.3,120.6,307.2,120.6,307.1,120.5z"/>
	<path class="st4" d="M318.5,119.9c-1.2-0.6-2.1-1.5-2.8-2.6c-0.7-1.2-1-2.5-1-3.9v-7.1c0-1.4,0.3-2.7,1-3.9c0.7-1.1,1.6-2,2.8-2.6
		c1.3-0.6,2.8-1,4.2-0.9c1.4,0,2.9,0.3,4.2,0.9c1.1,0.5,2.1,1.4,2.8,2.5c0.7,1.1,1,2.4,1,3.7c0,0.2-0.1,0.3-0.4,0.3l-3.6,0.2h-0.1
		c-0.2,0-0.3-0.1-0.3-0.3c0-1-0.3-1.9-1-2.6c-0.7-0.7-1.7-1-2.6-1c-1,0-1.9,0.3-2.7,1c-0.7,0.7-1,1.6-1,2.6v7.4c0,1,0.3,1.9,1,2.6
		c0.7,0.7,1.7,1,2.7,1c1,0,1.9-0.3,2.6-1c0.7-0.7,1-1.6,1-2.6c0-0.2,0.1-0.3,0.4-0.3l3.6,0.1c0.1,0,0.2,0,0.3,0.1
		c0.1,0.1,0.1,0.1,0.1,0.2c0,1.3-0.3,2.6-1,3.8c-0.7,1.1-1.6,2-2.8,2.5c-1.3,0.6-2.7,0.9-4.2,0.9
		C321.3,120.8,319.8,120.5,318.5,119.9z"/>
	<path class="st4" d="M334,120.5c-0.1-0.1-0.1-0.2-0.1-0.3V99.4c0-0.1,0-0.2,0.1-0.3c0.1-0.1,0.2-0.1,0.3-0.1h3.6
		c0.1,0,0.2,0,0.3,0.1c0.1,0.1,0.1,0.2,0.1,0.3v17.3c0,0.1,0,0.1,0.1,0.1c0,0,0,0,0,0h10.1c0.1,0,0.2,0,0.3,0.1
		c0.1,0.1,0.1,0.2,0.1,0.3v3c0,0.2-0.2,0.4-0.4,0.4h-14.2C334.1,120.6,334,120.6,334,120.5z"/>
	<path class="st4" d="M365.4,120.3l-0.9-3c0-0.1-0.1-0.1-0.1-0.1h-7.6c-0.1,0-0.1,0-0.1,0.1l-0.9,3c0,0.2-0.2,0.3-0.4,0.3h-3.9
		c-0.1,0-0.2,0-0.3-0.1c-0.1-0.1-0.1-0.2,0-0.3l6.7-20.8c0-0.2,0.2-0.3,0.4-0.3h4.8c0.2,0,0.4,0.1,0.4,0.3l6.7,20.8c0,0,0,0.1,0,0.1
		c0,0.2-0.1,0.3-0.3,0.3h-3.9C365.6,120.6,365.4,120.4,365.4,120.3z M357.8,113.8h5.4c0.1,0,0.2-0.1,0.1-0.2l-2.8-9.2
		c0-0.1,0-0.1-0.1-0.1c0,0-0.1,0.1-0.1,0.1l-2.7,9.2C357.6,113.7,357.7,113.8,357.8,113.8L357.8,113.8z"/>
	<path class="st4" d="M385.2,99.1c0.1-0.1,0.2-0.1,0.3-0.1h3.6c0.1,0,0.2,0,0.3,0.1c0.1,0.1,0.1,0.2,0.1,0.3v20.8
		c0,0.2-0.1,0.4-0.3,0.4c0,0,0,0,0,0h-3.5c-0.2,0-0.4-0.1-0.4-0.2l-8-13.2c0-0.1-0.1-0.1-0.1-0.1s-0.1,0.1-0.1,0.1l0.1,13
		c0,0.2-0.2,0.4-0.4,0.4h-3.6c-0.2,0-0.4-0.2-0.4-0.4V99.4c0-0.1,0-0.2,0.1-0.3c0.1-0.1,0.2-0.1,0.3-0.1h3.5c0.2,0,0.4,0.1,0.4,0.3
		l8,13.1c0,0.1,0.1,0.1,0.1,0.1c0,0,0.1-0.1,0.1-0.1v-13C385.2,99.3,385.2,99.2,385.2,99.1z"/>
	<path class="st4" d="M393.2,120.5c-0.1-0.1-0.1-0.2-0.1-0.3V99.4c0-0.2,0.2-0.4,0.4-0.4h7.7c1.4,0,2.8,0.3,4.1,0.8
		c1.1,0.5,2,1.3,2.7,2.3c0.6,1,1,2.2,0.9,3.4v8.5c0.1,2.5-1.4,4.7-3.7,5.7c-1.3,0.6-2.7,0.9-4.1,0.8h-7.7
		C393.3,120.6,393.2,120.6,393.2,120.5z M397.5,116.8h3.7c0.9,0,1.7-0.3,2.3-0.9c0.6-0.7,1-1.6,0.9-2.6v-7.1c0-0.9-0.3-1.9-0.9-2.6
		c-0.6-0.6-1.5-1-2.4-0.9h-3.7c-0.1,0-0.1,0.1-0.1,0.2v13.8C397.4,116.8,397.5,116.9,397.5,116.8
		C397.5,116.8,397.5,116.8,397.5,116.8L397.5,116.8z"/>
	<path class="st4" d="M423.5,120.3l-3.9-8.5c0-0.1-0.1-0.1-0.2-0.1h-2.9c-0.1,0-0.1,0-0.2,0.1c0,0,0,0,0,0v8.4c0,0.1,0,0.2-0.1,0.3
		c-0.1,0.1-0.2,0.1-0.3,0.1h-3.6c-0.1,0-0.2,0-0.3-0.1c-0.1-0.1-0.1-0.2-0.1-0.3V99.4c0-0.1,0-0.2,0.1-0.3c0.1-0.1,0.2-0.1,0.3-0.1
		h8.8c1.2,0,2.4,0.3,3.5,0.8c1,0.5,1.8,1.3,2.3,2.3c0.6,1.1,0.8,2.2,0.8,3.4c0,1.3-0.3,2.5-1,3.6c-0.7,1-1.7,1.8-2.9,2.1
		c-0.1,0-0.1,0.1-0.1,0.2c0,0,0,0,0,0l4.2,8.7c0,0.1,0,0.1,0.1,0.2c0,0.2-0.1,0.3-0.3,0.3h-3.8C423.7,120.6,423.6,120.5,423.5,120.3
		z M416.4,102.9v5.3c0,0.1,0,0.1,0.1,0.2c0,0,0,0,0,0h4c0.8,0,1.5-0.2,2.1-0.8c0.6-0.5,0.9-1.2,0.8-2c0-0.8-0.3-1.5-0.8-2
		c-0.6-0.5-1.3-0.8-2.1-0.8h-4C416.5,102.7,416.4,102.8,416.4,102.9C416.4,102.9,416.4,102.9,416.4,102.9z"/>
	<path class="st4" d="M431.1,120.5c-0.1-0.1-0.1-0.2-0.1-0.3V99.4c0-0.1,0-0.2,0.1-0.3c0.1-0.1,0.2-0.1,0.3-0.1h3.6
		c0.1,0,0.2,0,0.3,0.1c0.1,0.1,0.1,0.2,0.1,0.3v20.8c0,0.2-0.2,0.4-0.4,0.4h-3.6C431.3,120.6,431.2,120.5,431.1,120.5z"/>
	<path class="st4" d="M452.5,120.3l-0.9-3c0-0.1-0.1-0.1-0.2-0.1h-7.6c-0.1,0-0.1,0-0.2,0.1l-0.9,3c0,0.2-0.2,0.3-0.4,0.3h-3.9
		c-0.1,0-0.2,0-0.3-0.1c-0.1-0.1-0.1-0.2,0-0.3l6.7-20.8c0-0.2,0.2-0.3,0.4-0.3h4.8c0.2,0,0.4,0.1,0.4,0.3l6.7,20.8c0,0,0,0.1,0,0.1
		c0,0.2-0.1,0.3-0.3,0.3h-3.9C452.6,120.6,452.5,120.4,452.5,120.3z M444.9,113.8h5.4c0.1,0,0.2-0.1,0.1-0.2l-2.8-9.2
		c0-0.1-0.1-0.1-0.1-0.1c0,0-0.1,0.1-0.1,0.1l-2.7,9.2C444.7,113.7,444.8,113.8,444.9,113.8L444.9,113.8z"/>
	<path class="st3" d="M248.5,141.4c-0.5-0.2-0.8-0.5-1.1-0.9c-0.3-0.4-0.4-0.9-0.4-1.3v-0.4c0-0.1,0-0.1,0.1-0.1h0.9
		c0.1,0,0.1,0,0.1,0.1c0,0,0,0,0,0v0.3c0,0.4,0.2,0.8,0.6,1.1c0.5,0.3,1,0.5,1.6,0.4c0.5,0,1-0.1,1.3-0.4c0.3-0.2,0.5-0.6,0.5-0.9
		c0-0.3-0.1-0.5-0.2-0.7c-0.2-0.2-0.4-0.4-0.7-0.5c-0.4-0.2-0.9-0.4-1.3-0.6c-0.5-0.2-1-0.4-1.5-0.7c-0.4-0.2-0.7-0.5-0.9-0.8
		c-0.3-0.4-0.4-0.8-0.4-1.2c0-0.7,0.3-1.3,0.8-1.8c0.6-0.5,1.4-0.7,2.2-0.6c0.6,0,1.2,0.1,1.7,0.3c0.5,0.2,0.8,0.5,1.1,0.9
		c0.3,0.4,0.4,0.9,0.4,1.3v0.3c0,0.1,0,0.1-0.1,0.1c0,0,0,0,0,0h-1c-0.1,0-0.1,0-0.1-0.1c0,0,0,0,0,0v-0.2c0-0.4-0.2-0.9-0.5-1.1
		c-0.4-0.3-1-0.5-1.5-0.4c-0.4,0-0.9,0.1-1.3,0.3c-0.3,0.2-0.4,0.6-0.4,0.9c0,0.3,0.1,0.5,0.2,0.7c0.2,0.2,0.4,0.4,0.7,0.5
		c0.4,0.2,0.9,0.4,1.3,0.6c0.5,0.2,1,0.4,1.5,0.7c0.4,0.2,0.7,0.5,0.9,0.8c0.3,0.4,0.4,0.8,0.4,1.2c0,0.7-0.3,1.4-0.8,1.9
		c-0.7,0.5-1.5,0.7-2.3,0.7C249.6,141.8,249,141.6,248.5,141.4z"/>
	<path class="st3" d="M260.8,141.5l-0.5-1.5c0,0,0,0-0.1,0h-3.6c0,0,0,0-0.1,0l-0.5,1.5c0,0.1-0.1,0.1-0.1,0.1h-1.1
		c-0.1,0-0.1,0-0.1-0.1l2.8-8.9c0-0.1,0.1-0.1,0.1-0.1h1.3c0.1,0,0.1,0,0.2,0.1l2.9,8.9v0c0,0.1,0,0.1-0.1,0.1h-1.1
		C260.9,141.6,260.8,141.6,260.8,141.5z M256.9,138.9L256.9,138.9h3h0c0,0,0,0,0,0l-1.5-4.8l0,0l0,0L256.9,138.9L256.9,138.9z"/>
	<path class="st3" d="M265,141.3c-0.5-0.2-0.9-0.6-1.1-1.1c-0.3-0.5-0.4-1-0.4-1.6v-3.4c0-0.5,0.1-1.1,0.4-1.6
		c0.3-0.4,0.6-0.8,1.1-1c0.5-0.3,1.1-0.4,1.7-0.4c0.6,0,1.1,0.1,1.7,0.4c0.5,0.2,0.8,0.6,1.1,1c0.3,0.5,0.4,1,0.4,1.5l0,0
		c0,0,0,0.1,0,0.1c0,0-0.1,0-0.1,0l-1,0c-0.1,0-0.1,0-0.1-0.1l0,0c0-0.5-0.2-1-0.5-1.3c-0.8-0.7-2-0.7-2.8,0
		c-0.4,0.4-0.5,0.8-0.5,1.3v3.5c0,0.5,0.2,1,0.5,1.3c0.8,0.7,2,0.7,2.8,0c0.3-0.4,0.5-0.8,0.5-1.3l0,0c0-0.1,0-0.1,0.1-0.1l1,0.1
		c0.1,0,0.1,0,0.1,0.1c0,0,0,0,0,0c0,0.5-0.1,1.1-0.4,1.5c-0.3,0.4-0.7,0.8-1.1,1C267.3,141.9,266.1,141.9,265,141.3L265,141.3z"/>
	<path class="st3" d="M277,141.5l-1.9-3.9c0,0,0,0-0.1,0h-1.9c0,0-0.1,0-0.1,0v3.8c0,0.1,0,0.1-0.1,0.1c0,0,0,0,0,0h-1
		c-0.1,0-0.1,0-0.1-0.1c0,0,0,0,0,0v-8.9c0-0.1,0-0.1,0.1-0.1h3.5c0.5,0,1,0.1,1.4,0.3c0.4,0.2,0.7,0.5,0.9,0.9
		c0.2,0.4,0.3,0.9,0.3,1.3c0,0.6-0.1,1.1-0.5,1.5c-0.3,0.4-0.8,0.7-1.3,0.9c0,0,0,0,0,0.1l1.9,3.9c0,0,0,0,0,0.1s0,0.1-0.1,0.1h-1
		C277.1,141.6,277,141.6,277,141.5z M273.2,133.6v2.9c0,0,0,0,0,0.1c0,0,0,0,0,0h2.1c0.4,0,0.8-0.1,1.1-0.4c0.3-0.3,0.4-0.7,0.4-1.1
		c0-0.4-0.1-0.8-0.4-1.1c-0.3-0.3-0.7-0.4-1.1-0.4L273.2,133.6C273.3,133.5,273.2,133.6,273.2,133.6L273.2,133.6z"/>
	<path class="st3" d="M286,141.5l-0.5-1.5c0,0,0,0,0,0h-3.7h0l-0.5,1.5c0,0.1-0.1,0.1-0.2,0.1h-1c-0.1,0-0.1,0-0.1-0.1l2.8-8.9
		c0-0.1,0.1-0.1,0.2-0.1h1.3c0.1,0,0.1,0,0.2,0.1l2.9,8.9v0c0,0.1,0,0.1-0.1,0.1h-1C286.1,141.6,286,141.6,286,141.5z M282.1,138.9
		L282.1,138.9h3h0 M285.1,138.9l-1.5-4.8l0,0l0,0l-1.5,4.8H285.1z"/>
	<path class="st3" d="M295.2,132.5h1c0.1,0,0.1,0,0.1,0.1v8.8c0,0.1,0,0.1-0.1,0.1c0,0,0,0,0,0h-1c-0.1,0-0.1,0-0.1-0.1v-6.7
		c0,0,0,0,0-0.1l0,0l-1.9,2.8c0,0.1-0.1,0.1-0.1,0.1h-0.5c-0.1,0-0.1,0-0.2-0.1l-1.9-2.8l0,0c0,0,0,0,0,0.1v6.6c0,0.1,0,0.1-0.1,0.1
		c0,0,0,0,0,0h-1.1c-0.1,0-0.1,0-0.1-0.1c0,0,0,0,0,0v-8.8c0-0.1,0-0.1,0.1-0.1c0,0,0,0,0,0h0.9c0.1,0,0.1,0,0.2,0.1l2.3,3.4
		c0,0,0,0,0,0l0,0l2.3-3.4C295,132.5,295.1,132.5,295.2,132.5z"/>
	<path class="st3" d="M304.7,133.6H300H300v2.8c0,0,0,0,0,0.1c0,0,0,0,0,0h3.2c0.1,0,0.1,0,0.1,0.1c0,0,0,0,0,0v0.9
		c0,0.1,0,0.1-0.1,0.1c0,0,0,0,0,0h-3.2c0,0,0,0-0.1,0c0,0,0,0,0,0v2.9c0,0,0,0,0.1,0h4.6c0.1,0,0.1,0,0.1,0.1c0,0,0,0,0,0v0.8
		c0,0.1,0,0.1-0.1,0.1h-5.8c-0.1,0-0.1,0-0.1-0.1c0,0,0,0,0,0v-8.9c0-0.1,0-0.1,0.1-0.1h5.8c0.1,0,0.1,0,0.1,0.1c0,0,0,0,0,0v0.8
		C304.8,133.5,304.8,133.6,304.7,133.6C304.7,133.6,304.7,133.6,304.7,133.6z"/>
	<path class="st3" d="M312.4,132.5h1c0.1,0,0.1,0,0.1,0.1c0,0,0,0,0,0v8.8c0,0.1,0,0.1-0.1,0.1h-0.9c-0.1,0-0.1,0-0.1-0.1l-4.1-6.6
		c0,0,0,0,0,0c0,0,0,0,0,0v6.6c0,0.1,0,0.1-0.1,0.1h-1c-0.1,0-0.1,0-0.1-0.1v-8.8c0-0.1,0-0.1,0.1-0.1c0,0,0,0,0,0h0.9
		c0.1,0,0.1,0,0.1,0.1l4.1,6.6c0,0,0,0,0,0c0,0,0,0,0,0v-6.6C312.2,132.5,312.3,132.5,312.4,132.5
		C312.4,132.5,312.4,132.5,312.4,132.5z"/>
	<path class="st3" d="M321.9,132.6v0.8c0,0.1,0,0.1-0.1,0.1c0,0,0,0,0,0h-2.5h-0.1v7.8c0,0.1,0,0.1-0.1,0.1h-1c-0.1,0-0.1,0-0.1-0.1
		v-7.8l0,0h-2.4c-0.1,0-0.1,0-0.1-0.1c0,0,0,0,0,0v-0.8c0-0.1,0-0.1,0.1-0.1c0,0,0,0,0,0h6.2C321.8,132.5,321.9,132.5,321.9,132.6z"
		/>
	<path class="st3" d="M324.5,141.3c-0.5-0.2-0.9-0.6-1.1-1.1c-0.3-0.5-0.4-1.1-0.4-1.6v-3.1c0-0.6,0.1-1.1,0.4-1.6
		c0.3-0.5,0.7-0.8,1.1-1.1c0.5-0.3,1.1-0.4,1.7-0.4c0.6,0,1.2,0.1,1.7,0.4c0.5,0.3,0.9,0.6,1.1,1.1c0.3,0.5,0.4,1.1,0.4,1.6v3.1
		c0,0.6-0.1,1.1-0.4,1.6c-0.3,0.5-0.7,0.8-1.1,1.1c-0.5,0.3-1.1,0.4-1.7,0.4C325.6,141.7,325,141.6,324.5,141.3z M327.6,140.1
		c0.4-0.4,0.6-0.9,0.5-1.4v-3.2c0-0.5-0.2-1.1-0.5-1.5c-0.8-0.7-2-0.7-2.9,0c-0.4,0.4-0.6,0.9-0.5,1.5v3.2c0,0.5,0.2,1.1,0.5,1.4
		C325.5,140.8,326.8,140.8,327.6,140.1z"/>
	<path class="st3" d="M332.6,132.5c0,0,0,0.1,0,0.1l-1,2.5c0,0.1-0.1,0.1-0.1,0.1h-0.7c0,0-0.1,0-0.1,0c0,0,0-0.1,0-0.1l0.8-2.5
		c0-0.1,0.1-0.1,0.2-0.1L332.6,132.5C332.5,132.5,332.6,132.5,332.6,132.5z"/>
	<path class="st3" d="M335.1,141.4c-0.5-0.2-0.8-0.5-1.1-0.9c-0.3-0.4-0.4-0.9-0.4-1.3v-0.4c0-0.1,0-0.1,0.1-0.1c0,0,0,0,0,0h0.9
		c0.1,0,0.1,0,0.1,0.1c0,0,0,0,0,0v0.3c0,0.4,0.2,0.8,0.6,1.1c0.5,0.3,1,0.5,1.6,0.4c0.5,0,1-0.1,1.4-0.4c0.3-0.2,0.5-0.6,0.5-1
		c0-0.2-0.1-0.5-0.2-0.7c-0.2-0.2-0.4-0.4-0.7-0.5c-0.4-0.2-0.9-0.4-1.3-0.6c-0.5-0.2-1-0.4-1.5-0.7c-0.4-0.2-0.7-0.5-0.9-0.8
		c-0.3-0.4-0.4-0.8-0.4-1.2c0-0.7,0.3-1.3,0.8-1.8c0.6-0.5,1.4-0.7,2.2-0.6c0.6,0,1.2,0.1,1.7,0.3c0.5,0.2,0.8,0.5,1.1,0.9
		c0.3,0.4,0.4,0.9,0.4,1.3v0.3c0,0.1,0,0.1-0.1,0.1c0,0,0,0,0,0h-1c-0.1,0-0.1,0-0.1-0.1c0,0,0,0,0,0v-0.2c0-0.4-0.2-0.9-0.5-1.1
		c-0.4-0.3-1-0.5-1.5-0.4c-0.4,0-0.9,0.1-1.2,0.3c-0.3,0.2-0.5,0.6-0.4,0.9c0,0.3,0.1,0.5,0.2,0.7c0.2,0.2,0.4,0.4,0.7,0.5
		c0.4,0.2,0.9,0.4,1.3,0.6c0.5,0.2,1,0.4,1.5,0.7c0.4,0.2,0.7,0.5,0.9,0.8c0.3,0.4,0.4,0.8,0.4,1.2c0,0.7-0.3,1.4-0.8,1.9
		c-0.7,0.5-1.5,0.7-2.3,0.7C336.2,141.7,335.7,141.6,335.1,141.4z"/>
	<path class="st4" d="M350.5,131.7h1.7c0,0,0.1,0,0.1,0c0,0,0,0.1,0,0.1v9.6c0,0,0,0.1,0,0.1c0,0-0.1,0.1-0.1,0.1h-1.7
		c0,0-0.1,0-0.1-0.1c0,0-0.1-0.1-0.1-0.1v-6.3v-0.1c0,0,0,0-0.1,0l-1.5,2.4c0,0.1-0.1,0.1-0.2,0.1h-0.8c-0.1,0-0.2,0-0.2-0.1
		l-1.5-2.4c0,0,0,0-0.1,0c-0.1,0,0,0,0,0.1v6.2c0,0,0,0.1-0.1,0.1c0,0-0.1,0.1-0.1,0h-1.7c0,0-0.1,0-0.1,0c0,0-0.1-0.1-0.1-0.1v-9.5
		c0-0.1,0.1-0.2,0.2-0.2h1.7c0.1,0,0.2,0,0.2,0.1l2.1,3.3c0,0.1,0,0.1,0.1,0l2.1-3.3C350.4,131.7,350.5,131.7,350.5,131.7z"/>
	<path class="st4" d="M356.1,141.3c-0.5-0.3-1-0.7-1.3-1.2c-0.3-0.5-0.5-1.2-0.5-1.8v-6.5c0-0.1,0.1-0.2,0.2-0.2h1.7
		c0,0,0.1,0,0.1,0.1c0,0,0,0.1,0,0.1v6.5c-0.1,0.9,0.6,1.7,1.5,1.8c0.9,0.1,1.7-0.6,1.8-1.5c0-0.1,0-0.2,0-0.2v-6.5
		c0,0,0-0.1,0.1-0.1c0,0,0.1-0.1,0.1-0.1h1.7c0,0,0.1,0,0.1,0.1c0,0,0,0.1,0,0.1v6.5c0,0.6-0.1,1.2-0.5,1.8
		c-0.3,0.5-0.8,0.9-1.3,1.2c-0.6,0.3-1.3,0.4-1.9,0.4C357.3,141.7,356.7,141.6,356.1,141.3z"/>
	<path class="st4" d="M365.1,141.4c-0.5-0.2-1-0.6-1.3-1c-0.3-0.5-0.5-1-0.5-1.6v-0.3c0,0,0-0.1,0-0.1c0,0,0.1-0.1,0.1-0.1h1.6
		c0,0,0.1,0,0.1,0.1c0,0,0,0.1,0,0.1v0.2c0,0.4,0.2,0.7,0.5,0.9c0.4,0.3,0.9,0.4,1.4,0.4c0.4,0,0.8-0.1,1.1-0.3
		c0.2-0.2,0.4-0.5,0.4-0.8c0-0.2-0.1-0.4-0.2-0.6c-0.2-0.2-0.4-0.3-0.6-0.4c-0.3-0.1-0.7-0.3-1.2-0.5c-0.6-0.2-1.1-0.4-1.6-0.7
		c-0.4-0.2-0.8-0.5-1.1-0.9c-0.3-0.4-0.5-0.9-0.4-1.4c0-0.5,0.1-1.1,0.4-1.5c0.3-0.4,0.7-0.8,1.2-1c0.6-0.2,1.2-0.4,1.8-0.3
		c0.7,0,1.3,0.1,1.9,0.4c0.5,0.2,1,0.6,1.3,1.1c0.3,0.5,0.5,1,0.5,1.6v0.2c0,0.1-0.1,0.2-0.1,0.2c0,0,0,0,0,0h-1.6
		c-0.1,0-0.2-0.1-0.2-0.1c0,0,0,0,0,0v-0.1c0-0.4-0.2-0.8-0.5-1c-0.4-0.3-0.9-0.4-1.3-0.4c-0.4,0-0.7,0.1-1,0.3
		c-0.2,0.2-0.4,0.5-0.4,0.8c0,0.2,0.1,0.4,0.2,0.6c0.2,0.2,0.4,0.3,0.7,0.4c0.3,0.1,0.7,0.3,1.3,0.5c0.5,0.2,1.1,0.4,1.6,0.6
		c0.4,0.2,0.8,0.5,1,0.8c0.3,0.4,0.5,0.9,0.5,1.4c0,0.8-0.3,1.6-1,2.1c-0.8,0.6-1.7,0.8-2.6,0.8
		C366.5,141.7,365.8,141.6,365.1,141.4z"/>
	<path class="st4" d="M372.6,141.5c0,0-0.1-0.1-0.1-0.1v-9.5c0,0,0-0.1,0.1-0.1c0,0,0.1,0,0.1,0h1.7c0,0,0.1,0,0.1,0
		c0,0,0,0.1,0,0.1v9.6c0,0,0,0.1,0,0.1c0,0-0.1,0.1-0.1,0.1h-1.7C372.6,141.6,372.6,141.6,372.6,141.5z"/>
	<path class="st4" d="M378.2,141.3c-0.5-0.3-1-0.7-1.3-1.2c-0.3-0.6-0.5-1.2-0.5-1.8V135c0-0.6,0.1-1.3,0.5-1.8
		c0.3-0.5,0.8-0.9,1.3-1.2c0.6-0.3,1.3-0.4,1.9-0.4c0.7,0,1.3,0.1,1.9,0.4c0.5,0.2,1,0.6,1.3,1.2c0.3,0.5,0.5,1.1,0.5,1.7
		c0,0.1-0.1,0.1-0.2,0.1l-1.7,0.1l0,0c-0.1,0-0.1-0.1-0.1-0.2c0.1-0.9-0.6-1.6-1.5-1.7c-0.1,0-0.1,0-0.2,0c-0.5,0-0.9,0.1-1.2,0.5
		c-0.3,0.3-0.5,0.8-0.5,1.2v3.5c0,0.4,0.2,0.9,0.5,1.2c0.3,0.3,0.8,0.5,1.2,0.5c0.4,0,0.9-0.1,1.2-0.5c0.3-0.3,0.5-0.7,0.5-1.2
		c0-0.1,0.1-0.2,0.2-0.2l1.7,0.1c0,0,0.1,0,0.1,0c0,0,0.1,0.1,0.1,0.1c0,0.6-0.1,1.2-0.5,1.7c-0.3,0.5-0.8,0.9-1.3,1.2
		c-0.6,0.3-1.3,0.4-1.9,0.4C379.4,141.7,378.8,141.6,378.2,141.3z"/>
	<path class="st4" d="M393.7,131.7c0,0,0.1,0,0.1,0h1.7c0,0,0.1,0,0.1,0c0,0,0.1,0.1,0.1,0.1v9.6c0,0.1-0.1,0.2-0.2,0.2h-1.7
		c0,0-0.1,0-0.1-0.1c0,0-0.1-0.1-0.1-0.1v-3.9c0,0,0-0.1-0.1-0.1h-3.1c0,0-0.1,0-0.1,0.1c0,0,0,0,0,0v3.9c0,0,0,0.1,0,0.1
		c0,0-0.1,0.1-0.1,0.1h-1.7c0,0-0.1,0-0.1-0.1c0,0-0.1-0.1-0.1-0.1v-9.5c0,0,0-0.1,0.1-0.1c0,0,0.1,0,0.1,0h1.7c0,0,0.1,0,0.1,0
		c0,0,0,0.1,0,0.1v3.8c0,0,0,0.1,0.1,0.1h3.1c0,0,0.1,0,0.1-0.1v-3.8C393.7,131.8,393.7,131.8,393.7,131.7z"/>
	<path class="st4" d="M399.4,141.3c-0.5-0.3-1-0.7-1.3-1.2c-0.3-0.5-0.5-1.2-0.5-1.8v-6.5c0,0,0-0.1,0-0.1c0,0,0.1-0.1,0.1-0.1h1.7
		c0.1,0,0.2,0.1,0.2,0.2v6.5c0,0.9,0.8,1.7,1.8,1.7c0.4,0,0.8-0.2,1.1-0.5c0.3-0.3,0.5-0.8,0.5-1.2v-6.5c0,0,0-0.1,0-0.1
		c0,0,0.1-0.1,0.1-0.1h1.7c0,0,0.1,0,0.1,0.1c0,0,0,0.1,0,0.1v6.5c0,0.6-0.1,1.2-0.5,1.8c-0.3,0.5-0.8,0.9-1.3,1.2
		c-0.6,0.3-1.3,0.4-1.9,0.4C400.6,141.7,399.9,141.6,399.4,141.3z"/>
	<path class="st4" d="M412.8,136.5c0.9,0.4,1.4,1.3,1.3,2.3c0.1,0.8-0.3,1.6-0.9,2.1c-0.7,0.5-1.6,0.7-2.4,0.7h-3.7
		c0,0-0.1,0-0.1-0.1c0,0,0-0.1,0-0.1v-9.6c0,0,0-0.1,0-0.1c0,0,0.1-0.1,0.1-0.1h3.6c2.2,0,3.4,0.9,3.4,2.7
		C414.1,135.3,413.6,136.1,412.8,136.5C412.8,136.4,412.8,136.5,412.8,136.5z M409,133.5v2.2c0,0,0,0.1,0.1,0.1c0,0,0,0,0,0h1.7
		c0.4,0,0.7-0.1,1-0.3c0.3-0.2,0.4-0.5,0.4-0.9c0-0.3-0.1-0.7-0.4-0.9c-0.3-0.2-0.7-0.3-1-0.3L409,133.5
		C409,133.4,409,133.4,409,133.5z M411.9,139.5c0.3-0.2,0.4-0.6,0.4-0.9c0-0.3-0.1-0.7-0.4-0.9c-0.3-0.2-0.7-0.4-1-0.3H409
		c0,0-0.1,0-0.1,0c0,0,0,0,0,0v2.4c0,0,0,0.1,0,0.1c0,0,0,0,0,0h1.9C411.2,139.8,411.6,139.7,411.9,139.5L411.9,139.5z"/>
	<polygon class="st4" points="217.9,141.6 198.3,122 217.9,102.4 	"/>
	<polygon class="st4" points="217.9,67.2 217.9,98.7 185.9,130.7 185.9,99.2 	"/>
	<polygon class="st4" points="151.4,141.6 171,122 151.4,102.4 	"/>
	<polygon class="st4" points="151.4,67.2 151.4,98.7 183.4,130.7 183.4,99.2 	"/>
	<polygon class="st4" points="146.4,110.8 131.1,126.2 146.4,141.6 	"/>
	<polygon class="st4" points="107.2,106 107.2,141.6 142.8,141.6 	"/>
	<polygon class="st4" points="107.2,67.1 107.2,102.4 128.5,123.6 128.5,88.4 	"/>
	<polygon class="st4" points="64.6,67.1 84.1,86.6 103.5,67.1 	"/>
	<polygon class="st4" points="58.4,67.1 43,82.5 58.4,97.9 	"/>
	<polygon class="st4" points="61,67.1 61,120.3 82.3,141.6 82.3,88.4 	"/>
</g>
<line class="st5" x1="89" y1="174" x2="419" y2="174"/>
<line class="st5" x1="91" y1="675" x2="421" y2="675"/>
<polygon class="st6" points="462,702 445,717 19,717 19,46 31,33 44,22 479,22 479,686 "/>
</svg>
